<?xml version="1.0" encoding="utf-8"?>
<!-- Generator: Adobe Illustrator 26.4.1, SVG Export Plug-In . SVG Version: 6.00 Build 0)  -->
<svg version="1.1" id="Layer_1" xmlns="http://www.w3.org/2000/svg" xmlns:xlink="http://www.w3.org/1999/xlink" x="0px" y="0px"
	 viewBox="0 0 595.3 841.9" style="enable-background:new 0 0 595.3 841.9;" xml:space="preserve">
<style type="text/css">
	.st0{fill:none;stroke:#000000;stroke-width:2;stroke-miterlimit:10;}
	.st1{fill:none;stroke:#06060B;stroke-width:3;stroke-miterlimit:10;}
	.st2{fill:none;stroke:#231F20;stroke-miterlimit:10;}
</style>
<ellipse class="st0" cx="297.6" cy="359.6" rx="250" ry="187.5"/>
<path class="st0" d="M478.8,215.1V0h-11v207.5c-45.8-29.9-105.2-47.9-170.1-47.9c-66,0-126.3,18.6-172.4,49.4V0h-11v216.8
	c-48.5,36.3-78.6,86.9-78.6,142.8c0,110.5,117.3,200,262,200s262-89.5,262-200C559.6,302.8,528.6,251.5,478.8,215.1z"/>
<ellipse class="st1" cx="297.6" cy="359.6" rx="262" ry="200"/>
<g>
	<g>
		<path d="M221,258.8c-0.4,0-0.9-0.2-1.5-0.5c-0.6-0.4-1.1-0.8-1.5-1.4c-0.4-0.5-0.6-1-0.6-1.5c0-0.5,0-0.9,0-1.2
			c0-0.2,0.1-0.5,0.2-0.9c0.1-0.3,0.3-0.8,0.5-1.5c0.9-2.4,1.8-4.9,2.8-7.4c1-2.5,1.9-5.1,2.8-7.7c0.9-2.6,1.6-5.2,2.2-7.7
			c0.3-1.1,0.5-1.9,0.5-2.5c0.1-0.6-0.2-0.9-0.8-0.9c-0.8,0-1.7,0.2-2.8,0.6c-1.1,0.4-2.4,1.5-3.8,3.3c-0.2,0.2-0.6,0.3-0.9,0.3
			c-0.4,0-0.6-0.3-0.6-0.8c0-0.4,0.1-0.9,0.3-1.5c0.2-0.6,0.5-1.2,0.9-1.8c0.4-0.6,0.7-1.1,1-1.5c1.1-1.3,2.4-2.4,3.8-3.3
			c1.4-0.9,3.3-1.4,5.6-1.4c1.3,0,2.3,0.3,3.1,0.9c0.8,0.6,1.3,1.3,1.5,2.3c0.2,1,0.1,2-0.3,3.2l-4.1,11.6c-0.2,0.6-0.2,0.9,0,0.9
			c0.3,0,0.5-0.2,0.8-0.6c1.8-2.3,3.7-4.6,5.8-6.8c2-2.2,4.1-4.1,6.1-5.9c2-1.7,3.9-3.1,5.6-4.1c1.7-1,3.1-1.5,4.3-1.5
			c1.9,0,3.3,0.6,4.1,1.8c0.8,1.2,1.2,2.5,1.1,4c0,1-0.4,1.4-1.1,1.4c-0.3,0-0.7,0-1.2-0.1c-0.5-0.1-1.1-0.2-1.7-0.2
			c-0.5-0.1-1.1-0.1-1.6-0.2c-0.5-0.1-1-0.1-1.4-0.1c-1.3,0-2.6,0.3-3.9,0.9s-2.7,1.4-4,2.4c-1.3,1-2.5,2-3.6,3
			c-1.1,1.1-2,2-2.9,2.8c-0.2,0.2-0.4,0.5-0.4,0.6c0,0.2,0.1,0.4,0.2,0.5c1.3,1.5,2.4,3.3,3.3,5.4c0.9,2.1,1.7,4.2,2.4,6.3
			c0.4,1,0.8,1.9,1.4,2.7c0.6,0.8,1.2,1.2,1.9,1.2c0.7,0,1.5-0.2,2.3-0.7c0.8-0.5,1.6-1.1,2.5-1.9c0.8-0.8,1.6-1.6,2.3-2.5
			c0.4-0.5,0.7-0.9,0.9-1.2c0.2-0.2,0.4-0.4,0.6-0.4c0.2,0,0.3,0.1,0.5,0.3c0.1,0.2,0.2,0.5,0.2,0.9c0,1-0.5,2.2-1.5,3.6
			c-1,1.3-2.3,2.7-3.7,4c-1.5,1.4-2.9,2.5-4.4,3.3c-1.5,0.9-2.7,1.3-3.6,1.3c-1.1,0-2-0.4-2.7-1.1c-0.8-0.7-1.5-2-2.1-3.7l-3.3-9.2
			c-0.4-1.1-0.7-1.9-1.1-2.4c-0.4-0.5-0.9-0.7-1.6-0.7c-0.4,0-0.7,0.2-1,0.6c-0.3,0.4-0.6,0.9-0.8,1.4c-1,2.3-1.8,4.5-2.4,6.5
			c-0.7,2-1.3,3.9-2,5.8c-0.4,1-0.8,1.8-1.2,2.2C222.1,258.6,221.6,258.8,221,258.8z"/>
		<path d="M261.1,258.7c-0.7,0-1.5-0.2-2.2-0.6c-0.8-0.4-1.4-0.9-1.9-1.6c-0.5-0.6-0.7-1.3-0.7-1.9c0-2,0.6-4.4,1.9-7
			c1.3-2.6,3.2-5.5,5.8-8.7c2.5-3.1,5.7-6.5,9.3-10c3-2.8,5.6-5,7.7-6.5c2.1-1.5,3.7-2.3,4.7-2.3c1.2,0,2.4,0.6,3.5,1.7
			c0.7,0.8,1,1.2,0.9,1.2c0-0.1,0-0.1,0-0.1c0.1,0,0.2,0,0.3-0.1c0.1-0.1,0.2-0.2,0.2-0.4c0.7-1.2,1.2-2,1.4-2.3
			c0.2-0.3,0.2-0.5,0.2-0.5c0.3-0.6,0.8-0.9,1.4-0.9c0.7,0,1.4,0.1,2.1,0.4c0.7,0.3,1.3,0.6,1.8,1c0.5,0.4,0.7,0.8,0.7,1.2
			c0,0.3-0.2,0.9-0.5,1.8l-9.6,25.9c-0.7,1.9-0.4,2.8,1.1,2.8c1,0,2.2-0.5,3.6-1.6c1.5-1,2.8-2.3,4.1-3.8c0.1-0.1,0.2-0.2,0.4-0.3
			c0.1-0.1,0.2-0.1,0.4-0.1c0.2,0,0.4,0.1,0.5,0.3c0.1,0.2,0.2,0.5,0.2,0.8c0,0.6-0.5,1.6-1.4,2.9c-0.9,1.3-2,2.5-3.2,3.6
			c-1.9,1.7-3.7,3-5.6,3.9c-1.9,0.9-3.5,1.3-4.9,1.3c-0.7,0-1.4-0.2-2.2-0.6c-0.7-0.4-1.3-0.9-1.8-1.5c-0.5-0.6-0.7-1.2-0.7-1.9
			c0-0.5,0.2-1.2,0.5-2.1c-0.1,0.2-0.1,0.1,0.1-0.5c0.2-0.5,0.5-1.3,1-2.3c0.4-1,0.9-2,1.4-3.1c0.5-1.1,0.9-2,1.3-2.9
			c0.3-0.5,0.4-0.9,0.3-1.2c-0.1-0.3-0.3-0.2-0.6,0.1c-3.5,3.8-6.5,6.9-9.1,9.3c-2.6,2.4-4.9,4.1-6.8,5.1S262.9,258.7,261.1,258.7z
			 M267.7,251.7c1.2,0,3-1,5.5-3.2c2.5-2.1,5.2-4.9,8.2-8.5c2.2-2.5,3.9-4.8,5.1-6.9c1.2-2.1,1.8-3.6,1.8-4.6c0-0.5-0.4-1.1-1.3-1.9
			c-0.5-0.4-1-0.6-1.4-0.9c-0.5-0.2-0.9-0.3-1.2-0.3c-1.1,0-2.5,0.5-4.3,1.6c-1.8,1.1-3.4,2.3-4.9,3.8c-1.7,1.7-3.4,3.6-5,5.8
			c-1.6,2.2-2.8,4.4-3.8,6.5c-1,2.1-1.4,3.9-1.4,5.4c0,1,0.2,1.7,0.7,2.3C266.2,251.4,266.9,251.7,267.7,251.7z"/>
		<path d="M309,283.6c-1.7,0-3.3-0.2-4.7-0.6c-1.5-0.4-2.7-1-3.6-1.7c-0.9-0.7-1.3-1.6-1.3-2.5c0-1.3,0.4-2.3,1.2-3.2
			c0.8-0.9,1.6-1.4,2.5-1.4c0.7,0,1.3,0.3,1.9,0.8c0.6,0.5,1.2,1.1,1.8,1.8c0.7,0.6,1.5,1.2,2.3,1.9c0.8,0.7,1.7,1,2.6,1
			c1.6,0,3-1.2,4.3-3.6c1.3-2.4,2.5-5.7,3.4-9.9l2.4-10.4c-0.8,0.8-2,1.5-3.3,2.1c-1.4,0.6-2.8,0.9-4.1,0.9c-1.5,0-3-0.4-4.5-1.3
			c-1.5-0.9-2.7-2.2-3.7-3.9c-1-1.7-1.5-3.7-1.5-5.9c0-2.8,0.5-5.8,1.5-9c1-3.2,2.4-6.3,4.4-9.2c1.9-2.9,4.3-5.2,7.1-7.1
			c2.8-1.8,6-2.7,9.6-2.7c0.8,0,1.6,0.2,2.4,0.5c0.7,0.4,1.4,0.9,1.9,1.7l3.1-9.3c0.7-2.2,1.9-4.3,3.6-6.3c1.7-2.1,3.5-3.9,5.6-5.5
			s4.1-2.9,6.1-3.8c2-0.9,3.6-1.4,4.9-1.4c1.6,0,3,0.2,4.1,0.5c1.1,0.3,2.2,1,3.1,2c0.4,0.5,0.5,1.1,0.4,1.8c-0.2,0.7-0.5,1.4-1,2
			c-0.5,0.7-1.1,1.1-1.6,1.4c-0.6,0.2-1,0.2-1.3-0.1c-1.1-1.1-2-2.1-2.8-2.7c-0.8-0.7-1.8-1.1-2.9-1.1c-2.5-0.1-4.5,1-6.2,3.3
			c-1.1,1.5-2.1,3.4-3,5.7c-0.8,2.3-1.7,4.8-2.5,7.6l-2.2,6.7c0.8-0.9,2-1.6,3.5-2.1c1.5-0.5,2.9-0.7,4.2-0.7c1.4,0,2.8,0.4,4.2,1.3
			c1.4,0.9,2.6,2.1,3.6,3.8c1,1.7,1.4,3.6,1.4,5.9c0,2.8-0.5,5.8-1.6,9c-1,3.2-2.5,6.3-4.5,9.2c-1.9,2.9-4.2,5.3-6.8,7.2
			c-2.6,1.9-5.5,2.8-8.8,2.8c-1.1,0-2.1-0.2-2.9-0.7c-0.8-0.5-1.4-1.1-1.8-1.9l-2.4,9.1c-0.5,2.1-1.5,4.2-3,6.4
			c-1.5,2.2-3.1,4.1-5,5.9c-1.9,1.8-3.7,3.3-5.4,4.4C311.6,283,310.2,283.6,309,283.6z M315.8,255.5c0.8,0,1.8-0.3,2.9-0.9
			c1.1-0.6,2.1-1.6,3.2-3.1c1-1.4,1.9-3.4,2.7-5.8l4.6-16.5c0.6-2.1,0.5-3.7-0.3-4.9c-0.8-1.2-1.7-1.8-2.7-1.8
			c-1.3,0-2.6,0.6-3.9,1.8c-1.3,1.2-2.6,2.8-3.8,4.7c-1.2,2-2.3,4.1-3.3,6.4c-1,2.3-1.7,4.7-2.3,7c-0.6,2.3-0.9,4.4-0.9,6.3
			c0,2.2,0.3,3.8,0.9,4.9C313.5,254.9,314.4,255.5,315.8,255.5z M334.8,255.5c1.4,0,2.7-0.6,4.1-1.9c1.3-1.3,2.5-2.9,3.7-4.9
			c1.1-2,2.1-4.2,3-6.5c0.8-2.3,1.5-4.6,2-6.8c0.5-2.2,0.7-4.2,0.7-5.8c0-2.5-0.3-4.2-1-5.3c-0.7-1-1.6-1.6-2.9-1.6
			c-1.4,0-3,0.7-4.7,2.2c-1.7,1.5-3,3.8-3.8,7l-4.9,18.1c-0.4,1.4-0.1,2.6,0.7,3.8C332.4,254.9,333.5,255.5,334.8,255.5z"/>
		<path d="M367.3,258.8c-1.4,0-2.8-0.5-4.3-1.4c-1.5-1-2.7-2.2-3.7-3.8c-1-1.6-1.5-3.1-1.5-4.7c0-3.3,0.6-6.7,1.9-10.1
			c1.3-3.4,3-6.6,5.3-9.5c2.2-2.9,4.8-5.3,7.6-7.1c2.8-1.8,5.8-2.7,9-2.7c2.6,0,4.5,0.5,5.8,1.6c1.3,1.1,2,2.4,2,4
			c0,1.9-0.6,3.6-1.8,5c-1.2,1.4-2.9,2.6-4.9,3.6c-2,1-4.3,1.9-6.7,2.5c-2.4,0.7-4.9,1.2-7.3,1.7c-0.3,0.1-0.5,0.1-0.7,0.2
			c-0.2,0.1-0.3,0.3-0.5,0.6c-0.3,1-0.6,2.1-0.9,3.3c-0.3,1.2-0.5,2.3-0.5,3.3c0,2.1,0.5,3.8,1.4,5.1c0.9,1.3,2.3,1.9,4.2,1.9
			c2,0,3.7-0.5,5.1-1.5c1.4-1,2.7-2.1,3.9-3.3c0.6-0.7,1.1-1,1.5-1c0.6,0,0.9,0.3,0.9,0.9c0,0.1,0,0.3,0,0.5c0,0.2-0.1,0.3-0.2,0.4
			c-1.2,2-2.6,3.8-4.1,5.4c-1.6,1.5-3.3,2.7-5.2,3.6C371.7,258.4,369.6,258.8,367.3,258.8z M369.3,235.5c0.9-0.1,2.1-0.4,3.6-0.8
			c1.5-0.4,3-1,4.5-1.9c1.5-0.8,2.8-1.9,3.9-3.1c1.1-1.3,1.6-2.8,1.6-4.6c0-0.7-0.2-1.4-0.6-2c-0.4-0.6-1-0.9-1.8-0.9
			c-1.2,0-2.5,0.5-3.8,1.4c-1.3,1-2.6,2.1-3.8,3.5c-1.2,1.4-2.2,2.8-3,4.2c-0.8,1.4-1.2,2.6-1.3,3.6
			C368.7,235.4,368.9,235.6,369.3,235.5z"/>
	</g>
</g>
<g>
	<path class="st2" d="M213.1,399v1.1c0,51.9,11.9,93.5,83.5,93.5c71.7,0,81.6-34.5,83-79.6c0.1-4.7,0.2-9.5,0.2-14.4h-0.4"/>
	<path class="st2" d="M296.5,426.7c46.1,0,83.4-12.4,83.4-27.8c0-15.3-37.3-27.8-83.4-27.8c-46.1,0-83.4,12.4-83.4,27.8
		C213.1,414.3,250.5,426.7,296.5,426.7z"/>
	<path class="st2" d="M215.9,406.1c0-14.8,36.1-26.8,80.6-26.8s80.6,12,80.6,26.8"/>
	<path class="st2" d="M379.9,398.3c0,15.3-37.3,27.8-83.4,27.8s-83.4-12.4-83.4-27.8"/>
	<path class="st2" d="M398.6,444.6c-5.3-3.5-13-4.9-20.9-6.9c-0.4,3.5-1.3,8.2-3.3,13.6c-1.7,4.7-4.4,10.5-8.9,16.6
		c0,0-3.3,4.8-7.4,8.5c-13.4,12.1-35,16.6-61.4,16.6c-53,0-73.5-23.2-80.5-56.1c-27.4,6.9-44.6,17.8-44.6,29.5
		c0,20.9,55.9,37.8,124.9,37.8s124.9-16.9,124.9-37.8c0-5-3.6-9.2-8.8-14"/>
	<path class="st2" d="M278.3,315.5c0.7-4,0.4-6.3-2.1-11.3c-2.9-5.6-7.9-8.8-8.2-8.7c-0.3,0.1,3.4,2.9,5.4,7.7
		c0.4,1,3.4,6.4,0.6,12.7c-1.8,4.1-2.2,4.6-5.1,9.2c-3.9,6.4-5.7,9.7-6,10.5c-1.4,3.3-4.1,9.9-0.8,17c2.5,5.5,7.7,9.1,8,9
		c0.2-0.1-2.7-2.5-4.3-6.8c-0.8-2.2-1.7-5-1.9-6.6c-0.3-2.2-0.3-7,2.4-11.3c2.3-3.7,3.6-6,6.3-9.6
		C275.8,323.2,277.6,319.4,278.3,315.5L278.3,315.5z"/>
	<path class="st2" d="M305.2,314.9c0.7-4,0.4-6.3-2.1-11.3c-2.9-5.6-7.9-8.8-8.2-8.7c-0.3,0.1,3.4,2.9,5.4,7.7
		c0.4,1,3.4,6.4,0.6,12.7c-1.8,4.1-2.2,4.6-5.1,9.2c-3.9,6.4-5.7,9.7-6,10.5c-1.4,3.3-4.1,9.9-0.8,17c2.5,5.5,7.7,9.1,8,9
		c0.2-0.1-2.7-2.5-4.3-6.8c-0.8-2.2-1.7-5-1.9-6.6c-0.3-2.2-0.3-7,2.4-11.3c2.3-3.7,3.6-6,6.3-9.6
		C302.7,322.6,304.5,318.7,305.2,314.9L305.2,314.9z"/>
	<path class="st2" d="M332,315.5c0.7-4,0.4-6.3-2.1-11.3c-2.9-5.6-7.9-8.8-8.2-8.7c-0.3,0.1,3.4,2.9,5.4,7.7c0.4,1,3.4,6.4,0.6,12.7
		c-1.8,4.1-2.2,4.6-5.1,9.2c-3.9,6.4-5.7,9.7-6,10.5c-1.4,3.3-4.1,9.9-0.8,17c2.5,5.5,7.7,9.1,8,9c0.2-0.1-2.7-2.5-4.3-6.8
		c-0.8-2.2-1.7-5-1.9-6.6c-0.3-2.2-0.3-7,2.4-11.3c2.3-3.7,3.6-6,6.3-9.6C329.6,323.2,331.4,319.4,332,315.5L332,315.5z"/>
	<path class="st2" d="M419.3,473.3c-22,32.8-67.3,50.4-122.6,49.2c-55.2,0-97.4-14.7-121.1-46.6"/>
	<path class="st2" d="M415.9,477.5c-23.5,32.5-63.7,45-119.5,45c-53.2,1.3-95.7-13.7-118.9-44.7"/>
	<path class="st2" d="M379.9,405.7c2.8-1.3,9.1-4.4,14.8-5c3.7-0.4,15.6-1.9,25.6,5c9.2,6.3,12.8,16.7,11,25.4
		c-0.9,4.2-3.3,9-10.5,15.5c-16.3,14.5-43.2,21.7-56.4,23.9l4.9-7.2l3.7-8.4c2.6-1,36.4-11.6,40.8-23.6c0.7-2,2.2-6,0-9.5
		c-1.7-2.7-4.8-4-6.7-4.8c-1.7-0.7-5.4-2.2-10-1.4c-4.4,0.7-7.1,3.2-8.9,4.8c-0.7,0.6-2.1,2-6.7,9.7c-1.3,2.2-2.4,4.1-3.1,5.4
		l1.1-17.2L379.9,405.7L379.9,405.7z"/>
</g>
</svg>
