<svg width="533" height="218" viewBox="0 0 533 218" fill="none" xmlns="http://www.w3.org/2000/svg">
<path d="M56.6118 84.871L4.2998 133.808V209.183L416.05 213.121V144.496L4.2998 133.808" stroke="#231F20" stroke-width="2" stroke-miterlimit="10"/>
<path d="M416.05 213.121L477.925 138.128H471.175" stroke="#231F20" stroke-width="2" stroke-miterlimit="10"/>
<path d="M56.6118 132.683V62.558L116.8 2.74597L527.988 9.49597L470.05 67.715C470.087 70.052 470.125 72.39 470.162 74.727C470.5 95.861 470.838 116.995 471.175 138.129L56.6128 132.684L56.6118 132.683Z" stroke="#231F20" stroke-width="2" stroke-miterlimit="10"/>
<path d="M416.05 144.496L428.05 137.478" stroke="#231F20" stroke-width="2" stroke-miterlimit="10"/>
<path d="M56.6118 62.558L470.05 67.714" stroke="#231F20" stroke-width="2" stroke-miterlimit="10"/>
<path d="M416.203 201.182L471.175 138.128L527.987 62.558H522.362L520.691 16.827" stroke="#231F20" stroke-width="2" stroke-miterlimit="10"/>
<path d="M522.362 62.558L471.015 128.17" stroke="#231F20" stroke-width="2" stroke-miterlimit="10"/>
<path d="M153.74 114.004L153.755 111.09L154.522 111.093C155.613 111.099 156.463 110.754 157.072 110.058C157.68 109.363 158.121 108.236 158.393 106.677C158.674 105.119 158.868 103.053 158.975 100.48L159.5 87.8518L175.454 87.9339L175.319 114.115L172.149 114.099L172.269 90.73L162.502 90.6798L162.04 101.109C161.923 103.853 161.66 106.187 161.249 108.111C160.839 110.035 160.128 111.502 159.117 112.511C158.106 113.52 156.638 114.019 154.712 114.009L153.74 114.004ZM183.443 114.362C182.812 114.359 182.272 114.13 181.823 113.676C181.373 113.222 181.15 112.679 181.153 112.049C181.157 111.418 181.385 110.878 181.839 110.429C182.293 109.979 182.836 109.756 183.466 109.76C184.097 109.763 184.637 109.991 185.086 110.445C185.536 110.899 185.759 111.442 185.756 112.072C185.753 112.49 185.645 112.873 185.43 113.221C185.224 113.57 184.945 113.85 184.595 114.061C184.253 114.264 183.869 114.364 183.443 114.362ZM191.568 114.199L191.703 88.0176L194.873 88.0339L194.813 99.6928L208.773 99.7647L208.833 88.1058L212.004 88.1221L211.869 114.304L208.698 114.287L208.759 102.577L194.799 102.505L194.738 114.215L191.568 114.199ZM227.029 91.012L227.044 88.1995L246.68 88.3006L246.665 91.1131L238.433 91.0707L238.312 114.44L235.142 114.423L235.262 91.0544L227.029 91.012ZM256.157 114.941C254.384 114.932 252.831 114.502 251.497 113.651C250.172 112.8 249.138 111.615 248.396 110.094C247.662 108.573 247.301 106.798 247.311 104.77C247.322 102.725 247.702 100.941 248.451 99.4193C249.209 97.8976 250.255 96.7183 251.588 95.8814C252.931 95.0446 254.488 94.6307 256.261 94.6398C258.034 94.6489 259.583 95.0788 260.908 95.9294C262.242 96.78 263.275 97.97 264.009 99.4994C264.751 101.029 265.117 102.816 265.106 104.862C265.096 106.89 264.712 108.661 263.954 110.174C263.205 111.687 262.159 112.862 260.816 113.699C259.483 114.536 257.929 114.95 256.157 114.941ZM256.17 112.23C257.517 112.237 258.627 111.898 259.5 111.212C260.372 110.526 261.021 109.622 261.444 108.499C261.867 107.376 262.082 106.159 262.089 104.846C262.096 103.534 261.894 102.31 261.482 101.174C261.07 100.038 260.431 99.1187 259.566 98.4154C258.7 97.7121 257.594 97.3569 256.247 97.35C254.901 97.3431 253.791 97.6868 252.918 98.3812C252.045 99.0756 251.397 99.9884 250.973 101.12C250.55 102.251 250.335 103.473 250.328 104.786C250.321 106.098 250.524 107.318 250.936 108.445C251.347 109.572 251.986 110.483 252.852 111.178C253.718 111.873 254.824 112.224 256.17 112.23ZM267.923 114.592L267.938 111.78L268.653 111.783C269.241 111.786 269.732 111.674 270.125 111.446C270.519 111.209 270.836 110.797 271.078 110.211C271.328 109.615 271.52 108.79 271.653 107.733C271.795 106.669 271.9 105.314 271.968 103.67L272.371 94.9785L285.461 95.0459L285.36 114.682L282.343 114.666L282.43 97.8428L275.22 97.8057L274.877 104.81C274.8 106.42 274.648 107.838 274.42 109.064C274.201 110.282 273.868 111.303 273.42 112.128C272.981 112.952 272.399 113.571 271.672 113.985C270.945 114.399 270.037 114.603 268.946 114.597L267.923 114.592ZM298.871 115.161C297.03 115.151 295.447 114.708 294.122 113.832C292.797 112.956 291.78 111.753 291.072 110.224C290.364 108.695 290.015 106.95 290.025 104.99C290.036 102.996 290.411 101.238 291.152 99.7158C291.901 98.1856 292.939 96.9935 294.264 96.1395C295.598 95.277 297.151 94.8504 298.924 94.8595C300.305 94.8666 301.548 95.1287 302.653 95.6457C303.758 96.1628 304.662 96.8834 305.365 97.8075C306.068 98.7315 306.501 99.8077 306.665 101.036L303.648 101.02C303.423 100.124 302.915 99.329 302.126 98.6345C301.346 97.9317 300.291 97.5768 298.961 97.5699C297.785 97.5639 296.752 97.8654 295.863 98.4745C294.982 99.075 294.291 99.928 293.791 101.033C293.3 102.13 293.05 103.42 293.043 104.903C293.035 106.42 293.267 107.742 293.738 108.87C294.218 109.997 294.896 110.874 295.77 111.501C296.653 112.128 297.692 112.444 298.885 112.45C299.669 112.454 300.381 112.322 301.022 112.052C301.662 111.783 302.206 111.394 302.651 110.885C303.097 110.375 303.416 109.763 303.607 109.049L306.624 109.064C306.447 110.222 306.02 111.264 305.342 112.19C304.673 113.107 303.787 113.835 302.685 114.375C301.591 114.906 300.32 115.168 298.871 115.161ZM309.545 97.9824L309.559 95.1699L325.513 95.2521L325.499 98.0645L319.056 98.0314L318.969 114.855L315.952 114.839L316.039 98.0158L309.545 97.9824ZM336.769 115.356C334.996 115.347 333.443 114.917 332.109 114.066C330.784 113.216 329.75 112.03 329.008 110.509C328.274 108.988 327.913 107.213 327.923 105.185C327.934 103.14 328.314 101.356 329.063 99.8343C329.821 98.3126 330.867 97.1334 332.201 96.2965C333.543 95.4596 335.101 95.0457 336.873 95.0549C338.646 95.064 340.195 95.4939 341.52 96.3444C342.854 97.1951 343.887 98.3851 344.621 99.9144C345.363 101.444 345.729 103.231 345.718 105.277C345.708 107.305 345.324 109.076 344.566 110.589C343.817 112.102 342.771 113.277 341.429 114.114C340.095 114.951 338.541 115.365 336.769 115.356ZM336.783 112.646C338.129 112.652 339.239 112.313 340.112 111.627C340.985 110.941 341.633 110.037 342.056 108.914C342.48 107.791 342.695 106.574 342.701 105.261C342.708 103.949 342.506 102.725 342.094 101.589C341.682 100.453 341.043 99.5338 340.178 98.8305C339.312 98.1271 338.206 97.772 336.859 97.7651C335.513 97.7581 334.403 98.1019 333.53 98.7962C332.657 99.4906 332.009 100.403 331.586 101.535C331.162 102.666 330.947 103.888 330.94 105.201C330.934 106.513 331.136 107.733 331.548 108.86C331.96 109.987 332.598 110.898 333.464 111.593C334.33 112.288 335.436 112.639 336.783 112.646ZM353.314 110.583L362.852 95.4443L366.329 95.4622L366.228 115.098L363.211 115.083L363.289 99.8955L353.802 115.034L350.274 115.016L350.375 95.3801L353.392 95.3956L353.314 110.583ZM360.891 88.8887L363.704 88.9032C363.697 90.2838 363.214 91.4106 362.255 92.2835C361.296 93.1564 359.998 93.5887 358.362 93.5803C356.751 93.572 355.47 93.1265 354.52 92.2437C353.579 91.361 353.112 90.2293 353.119 88.8487L355.931 88.8631C355.928 89.5279 356.108 90.1127 356.472 90.6174C356.844 91.1221 357.478 91.3768 358.373 91.3814C359.268 91.386 359.908 91.1379 360.294 90.6371C360.689 90.1362 360.888 89.5534 360.891 88.8887Z" fill="#231F20"/>
<path d="M61.3354 165L65.4774 165.021C67.4205 165.031 69.1441 165.475 70.6482 166.352C72.1522 167.229 73.3306 168.445 74.1834 170.001C75.0362 171.556 75.4573 173.357 75.4468 175.402C75.4363 177.448 74.9966 179.248 74.1278 180.803C73.259 182.359 72.068 183.571 70.555 184.441C69.042 185.311 67.3139 185.741 65.3708 185.731L61.2288 185.71C59.2856 185.7 57.562 185.256 56.058 184.379C54.554 183.502 53.3755 182.286 52.5228 180.73C51.67 179.175 51.2488 177.374 51.2594 175.329C51.2699 173.284 51.7096 171.483 52.5784 169.928C53.4472 168.373 54.6381 167.16 56.1511 166.29C57.6641 165.42 59.3922 164.99 61.3354 165ZM61.3209 167.812C59.838 167.805 58.5836 168.109 57.5576 168.726C56.5402 169.343 55.7644 170.217 55.2302 171.348C54.7045 172.479 54.4377 173.811 54.4298 175.345C54.422 176.862 54.6751 178.185 55.1892 179.312C55.7118 180.44 56.4786 181.318 57.4896 181.945C58.5091 182.572 59.7603 182.89 61.2432 182.897L65.3852 182.919C66.8682 182.926 68.1183 182.622 69.1357 182.005C70.1616 181.388 70.9375 180.514 71.4632 179.383C71.9974 178.253 72.2685 176.92 72.2764 175.386C72.2842 173.869 72.0268 172.547 71.5042 171.419C70.9901 170.291 70.2233 169.414 69.2038 168.786C68.1928 168.159 66.9458 167.841 65.4629 167.834L61.3209 167.812ZM65.0356 161.439L64.8929 189.155L61.7225 189.139L61.8652 161.423L65.0356 161.439ZM80.8293 188.368C80.1987 188.364 79.6586 188.136 79.2093 187.682C78.7599 187.228 78.5368 186.685 78.5401 186.055C78.5433 185.424 78.772 184.884 79.226 184.435C79.68 183.985 80.2224 183.762 80.853 183.766C81.4837 183.769 82.0237 183.997 82.4731 184.451C82.9225 184.905 83.1455 185.448 83.1423 186.078C83.1401 186.496 83.0316 186.879 82.8168 187.227C82.6104 187.576 82.332 187.856 81.9815 188.067C81.6395 188.27 81.2555 188.37 80.8293 188.368ZM89.0894 162.024L92.8734 162.043L101.659 183.822L101.966 183.823L110.975 162.136L114.759 162.156L114.625 188.337L111.659 188.322L111.761 168.43L111.506 168.429L103.221 188.278L100.358 188.264L92.2785 168.33L92.0229 168.329L91.9204 188.22L88.9546 188.205L89.0894 162.024ZM122.77 188.584C122.14 188.58 121.599 188.352 121.15 187.898C120.701 187.444 120.478 186.901 120.481 186.271C120.484 185.64 120.713 185.1 121.167 184.651C121.621 184.201 122.163 183.978 122.794 183.981C123.425 183.985 123.965 184.213 124.414 184.667C124.863 185.121 125.086 185.664 125.083 186.294C125.081 186.712 124.972 187.095 124.758 187.443C124.551 187.792 124.273 188.072 123.922 188.283C123.58 188.486 123.196 188.586 122.77 188.584ZM138.738 194.802L138.785 185.649L140.472 185.658C141.055 185.132 141.604 184.389 142.12 183.429C142.645 182.46 143.091 181.167 143.457 179.549C143.832 177.924 144.085 175.858 144.217 173.353L144.837 162.311L160.382 162.391L160.262 185.76L163.279 185.775L163.232 194.877L160.215 194.862L160.247 188.572L141.787 188.477L141.755 194.818L138.738 194.802ZM144.256 185.677L157.245 185.744L157.351 165.188L147.686 165.138L147.234 173.369C147.122 175.277 146.935 177.006 146.671 178.556C146.407 180.097 146.072 181.463 145.665 182.655C145.259 183.837 144.789 184.845 144.256 185.677ZM175.621 189.06C173.848 189.051 172.295 188.621 170.961 187.771C169.636 186.92 168.603 185.734 167.86 184.213C167.127 182.693 166.765 180.918 166.776 178.89C166.786 176.844 167.166 175.061 167.915 173.539C168.673 172.017 169.719 170.838 171.053 170.001C172.395 169.164 173.953 168.75 175.726 168.759C177.498 168.769 179.047 169.198 180.372 170.049C181.706 170.9 182.74 172.09 183.473 173.619C184.216 175.148 184.581 176.936 184.571 178.981C184.56 181.01 184.176 182.78 183.418 184.294C182.669 185.807 181.623 186.982 180.281 187.819C178.947 188.656 177.394 189.069 175.621 189.06ZM175.635 186.35C176.982 186.357 178.091 186.018 178.964 185.332C179.837 184.646 180.485 183.742 180.909 182.619C181.332 181.496 181.547 180.278 181.554 178.966C181.561 177.653 181.358 176.429 180.946 175.294C180.534 174.158 179.896 173.238 179.03 172.535C178.164 171.832 177.058 171.477 175.712 171.47C174.365 171.463 173.255 171.806 172.382 172.501C171.51 173.195 170.861 174.108 170.438 175.239C170.014 176.371 169.799 177.593 169.793 178.905C169.786 180.218 169.988 181.437 170.4 182.565C170.812 183.692 171.451 184.603 172.317 185.298C173.182 185.992 174.288 186.343 175.635 186.35ZM197.101 189.171C195.26 189.161 193.677 188.719 192.352 187.842C191.027 186.966 190.011 185.764 189.303 184.234C188.595 182.705 188.246 180.96 188.256 179C188.266 177.006 188.642 175.248 189.382 173.726C190.132 172.196 191.169 171.004 192.495 170.15C193.829 169.287 195.382 168.861 197.155 168.87C198.535 168.877 199.778 169.139 200.884 169.656C201.989 170.173 202.893 170.894 203.596 171.818C204.298 172.742 204.732 173.818 204.896 175.046L201.879 175.031C201.653 174.135 201.146 173.339 200.357 172.645C199.576 171.942 198.521 171.587 197.192 171.58C196.016 171.574 194.983 171.876 194.093 172.485C193.212 173.085 192.522 173.938 192.022 175.044C191.53 176.141 191.281 177.431 191.273 178.914C191.265 180.431 191.497 181.753 191.969 182.88C192.449 184.008 193.126 184.885 194.001 185.511C194.884 186.138 195.922 186.455 197.115 186.461C197.899 186.465 198.612 186.332 199.252 186.063C199.893 185.793 200.436 185.404 200.882 184.895C201.328 184.386 201.646 183.774 201.837 183.059L204.854 183.074C204.678 184.233 204.251 185.274 203.573 186.2C202.903 187.117 202.017 187.845 200.915 188.385C199.821 188.916 198.55 189.178 197.101 189.171ZM207.775 171.993L207.79 169.18L223.744 169.262L223.729 172.075L217.286 172.042L217.2 188.865L214.183 188.85L214.269 172.026L207.775 171.993ZM234.999 189.366C233.226 189.357 231.673 188.927 230.34 188.076C229.014 187.226 227.981 186.04 227.239 184.519C226.505 182.998 226.143 181.224 226.154 179.195C226.164 177.15 226.544 175.366 227.293 173.845C228.051 172.323 229.097 171.144 230.431 170.307C231.773 169.47 233.331 169.056 235.104 169.065C236.876 169.074 238.425 169.504 239.751 170.355C241.084 171.205 242.118 172.395 242.852 173.925C243.594 175.454 243.959 177.242 243.949 179.287C243.938 181.315 243.554 183.086 242.797 184.599C242.047 186.113 241.001 187.288 239.659 188.124C238.325 188.961 236.772 189.375 234.999 189.366ZM235.013 186.656C236.36 186.663 237.469 186.323 238.342 185.637C239.215 184.952 239.863 184.047 240.287 182.924C240.71 181.802 240.925 180.584 240.932 179.271C240.939 177.959 240.736 176.735 240.324 175.599C239.913 174.464 239.274 173.544 238.408 172.841C237.542 172.137 236.436 171.782 235.09 171.775C233.743 171.768 232.633 172.112 231.761 172.807C230.888 173.501 230.239 174.414 229.816 175.545C229.393 176.677 229.177 177.898 229.171 179.211C229.164 180.523 229.366 181.743 229.778 182.87C230.19 183.997 230.829 184.908 231.695 185.603C232.56 186.298 233.667 186.649 235.013 186.656ZM256.735 189.478C254.843 189.468 253.213 189.042 251.845 188.2C250.486 187.349 249.439 186.168 248.706 184.655C247.981 183.135 247.623 181.368 247.634 179.357C247.644 177.346 248.02 175.575 248.76 174.045C249.51 172.506 250.547 171.31 251.873 170.456C253.207 169.593 254.76 169.166 256.533 169.176C257.555 169.181 258.565 169.356 259.56 169.702C260.555 170.049 261.46 170.607 262.274 171.378C263.089 172.141 263.735 173.15 264.215 174.405C264.694 175.661 264.929 177.205 264.92 179.037L264.913 180.315L249.777 180.237L249.79 177.63L261.858 177.692C261.864 176.584 261.648 175.594 261.209 174.722C260.779 173.851 260.16 173.162 259.353 172.655C258.554 172.148 257.61 171.891 256.519 171.886C255.317 171.88 254.276 172.172 253.395 172.765C252.523 173.348 251.85 174.112 251.376 175.055C250.902 175.999 250.663 177.012 250.657 178.094L250.648 179.833C250.641 181.316 250.89 182.574 251.396 183.608C251.91 184.633 252.627 185.417 253.544 185.959C254.462 186.492 255.53 186.762 256.749 186.768C257.542 186.772 258.258 186.665 258.898 186.446C259.547 186.22 260.107 185.882 260.578 185.432C261.049 184.975 261.415 184.405 261.674 183.725L264.584 184.558C264.272 185.545 263.752 186.412 263.024 187.158C262.296 187.896 261.398 188.471 260.33 188.883C259.263 189.286 258.065 189.485 256.735 189.478ZM269.457 189.134L269.558 169.498L277.587 169.54C279.7 169.55 281.377 170.036 282.616 170.997C283.855 171.958 284.471 173.223 284.463 174.791C284.457 175.984 284.098 176.907 283.388 177.56C282.677 178.204 281.767 178.638 280.658 178.862C281.382 178.968 282.084 179.228 282.763 179.64C283.452 180.053 284.02 180.618 284.468 181.337C284.916 182.046 285.137 182.917 285.132 183.948C285.127 184.954 284.866 185.851 284.351 186.641C283.835 187.431 283.099 188.054 282.142 188.509C281.185 188.965 280.042 189.189 278.713 189.182L269.457 189.134ZM272.335 186.388L278.727 186.421C279.767 186.426 280.582 186.183 281.172 185.692C281.763 185.201 282.061 184.529 282.065 183.676C282.07 182.662 281.78 181.864 281.195 181.281C280.61 180.69 279.798 180.392 278.758 180.387L272.366 180.354L272.335 186.388ZM272.379 177.746L277.544 177.772C278.354 177.777 279.049 177.669 279.63 177.451C280.21 177.224 280.655 176.902 280.964 176.486C281.282 176.062 281.442 175.56 281.445 174.98C281.449 174.153 281.107 173.504 280.419 173.032C279.732 172.551 278.783 172.307 277.572 172.301L272.408 172.274L272.379 177.746ZM297.647 189.689C295.806 189.679 294.223 189.236 292.898 188.36C291.573 187.484 290.556 186.281 289.848 184.752C289.14 183.223 288.791 181.478 288.801 179.518C288.812 177.524 289.187 175.766 289.928 174.244C290.677 172.714 291.715 171.521 293.04 170.667C294.374 169.805 295.927 169.378 297.7 169.387C299.081 169.395 300.324 169.657 301.429 170.174C302.534 170.691 303.438 171.411 304.141 172.335C304.844 173.26 305.277 174.336 305.441 175.564L302.424 175.548C302.199 174.652 301.691 173.857 300.902 173.163C300.122 172.46 299.067 172.105 297.737 172.098C296.561 172.092 295.528 172.393 294.639 173.002C293.758 173.603 293.067 174.456 292.567 175.561C292.076 176.658 291.826 177.948 291.819 179.431C291.811 180.948 292.043 182.27 292.514 183.398C292.994 184.525 293.672 185.402 294.546 186.029C295.429 186.656 296.468 186.972 297.661 186.978C298.445 186.982 299.157 186.85 299.798 186.58C300.438 186.311 300.982 185.922 301.427 185.413C301.873 184.903 302.192 184.291 302.383 183.577L305.4 183.592C305.223 184.75 304.796 185.792 304.118 186.718C303.449 187.635 302.563 188.363 301.461 188.903C300.367 189.434 299.096 189.696 297.647 189.689ZM309.781 189.342L309.882 169.706L312.899 169.721L312.855 178.261L314.849 178.271L321.95 169.768L325.836 169.788L317.862 179.207L325.837 189.425L321.951 189.405L315.551 181.088L312.84 181.074L312.798 189.358L309.781 189.342ZM332.156 185.008L341.695 169.87L345.172 169.888L345.071 189.524L342.054 189.508L342.132 174.321L332.645 189.46L329.117 189.442L329.218 169.805L332.235 169.821L332.156 185.008ZM353.637 185.119L363.175 169.98L366.652 169.998L366.551 189.634L363.534 189.619L363.612 174.431L354.125 189.57L350.597 189.552L350.698 169.916L353.715 169.932L353.637 185.119ZM361.214 163.425L364.027 163.439C364.02 164.82 363.537 165.947 362.578 166.819C361.618 167.692 360.321 168.125 358.684 168.116C357.074 168.108 355.793 167.662 354.843 166.78C353.902 165.897 353.435 164.765 353.442 163.385L356.254 163.399C356.251 164.064 356.431 164.649 356.795 165.153C357.167 165.658 357.801 165.913 358.696 165.917C359.591 165.922 360.231 165.674 360.617 165.173C361.012 164.672 361.211 164.089 361.214 163.425Z" fill="#231F20"/>
</svg>
