<svg width="265" height="304" viewBox="0 0 265 304" fill="none" xmlns="http://www.w3.org/2000/svg">
<path d="M253.45 289.43C253.45 284.19 257.66 279.74 263.54 278.07V273.57C257.67 271.91 253.45 267.46 253.45 262.21C253.45 256.96 257.66 252.52 263.54 250.85V246.35C257.67 244.69 253.45 240.24 253.45 234.99C253.45 229.74 257.66 225.3 263.54 223.63V219.13C257.67 217.47 253.45 213.02 253.45 207.77C253.45 202.52 257.66 198.08 263.54 196.41V191.91C257.67 190.25 253.45 185.8 253.45 180.55C253.45 175.3 257.66 170.86 263.54 169.19V164.69C257.67 163.03 253.45 158.58 253.45 153.33C253.45 148.08 257.66 143.64 263.54 141.97V137.47C257.67 135.81 253.45 131.36 253.45 126.11C253.45 120.86 257.66 116.42 263.54 114.75V110.25C257.67 108.59 253.45 104.14 253.45 98.89C253.45 93.64 257.66 89.2 263.54 87.53V83.03C257.67 81.37 253.45 76.92 253.45 71.67C253.45 66.42 257.66 61.98 263.54 60.31V55.81C257.67 54.15 253.45 49.7 253.45 44.45C253.45 39.2 257.66 34.76 263.54 33.09V28.59C257.67 26.93 253.45 22.25 253.45 17C253.45 10.49 257.66 7.54 263.54 5.87V0.5H256.88C255.62 6.17 252 10.49 243 10.49C235.4 10.49 227.84 6.17 226.58 0.5H222.11C220.78 6.17 214.13 10.49 206.1 10.49C198.07 10.49 191.42 6.17 190.09 0.5H185.42C184.09 6.17 177.44 10.49 169.41 10.49C161.38 10.49 154.73 6.17 153.4 0.5H149.19C147.86 6.17 141.21 10.49 133.18 10.49C125.15 10.49 118.5 6.17 117.17 0.5H112.5C111.17 6.17 104.52 10.49 96.49 10.49C88.46 10.49 81.81 6.17 80.48 0.5H75.81C74.48 6.17 67.83 10.49 59.8 10.49C51.77 10.49 45.12 6.17 43.79 0.5H39.12C37.79 6.17 31.14 10.49 23.11 10.49C15.08 10.49 8.43002 6.17 7.10002 0.5H1.52002V4.63C7.95002 6.24 12.59 10.74 12.59 16.06C12.59 21.38 7.95002 25.88 1.52002 27.49V31.85C7.95002 33.46 12.59 37.96 12.59 43.28C12.59 48.6 7.95002 53.1 1.52002 54.71V59.07C7.95002 60.68 12.59 65.18 12.59 70.5C12.59 75.82 7.95002 80.32 1.52002 81.93V86.29C7.95002 87.9 12.59 92.4 12.59 97.72C12.59 103.04 7.95002 107.54 1.52002 109.15V113.51C7.95002 115.12 12.59 119.62 12.59 124.94C12.59 130.26 7.95002 134.76 1.52002 136.37V140.73C7.95002 142.34 12.59 146.84 12.59 152.16C12.59 157.48 7.95002 161.98 1.52002 163.59V167.95C7.95002 169.56 12.59 174.06 12.59 179.38C12.59 184.7 7.95002 189.2 1.52002 190.81V195.17C7.95002 196.78 12.59 201.28 12.59 206.6C12.59 211.92 7.95002 216.42 1.52002 218.03V222.39C7.95002 224 12.59 228.5 12.59 233.82C12.59 239.14 7.95002 243.64 1.52002 245.25V249.61C7.95002 251.22 12.59 255.72 12.59 261.04C12.59 266.36 7.95002 270.86 1.52002 272.47V276.83C7.95002 278.44 12.59 282.94 12.59 288.26C12.59 293.58 7.95002 298.08 1.52002 299.69V303.15H8.30002C9.63002 297.48 16.28 293.16 24.31 293.16C32.34 293.16 38.99 297.48 40.32 303.15H44.99C46.32 297.48 52.97 293.16 61 293.16C69.03 293.16 75.68 297.48 77.01 303.15H81.68C83.01 297.48 89.66 293.16 97.69 293.16C105.72 293.16 112.37 297.48 113.7 303.15H118.37C119.7 297.48 126.35 293.16 134.38 293.16C142.41 293.16 149.06 297.48 150.39 303.15H154.6C155.93 297.48 162.58 293.16 170.61 293.16C178.64 293.16 185.29 297.48 186.62 303.15H191.29C192.62 297.48 199.27 293.16 207.3 293.16C215.33 293.16 221.98 297.48 223.31 303.15H227.78C229.04 297.48 235.33 293.16 242.93 293.16C250.53 293.16 253.74 297.48 255 303.15H263.55V300.81C257.68 299.15 253.46 294.7 253.46 289.45L253.45 289.43Z" fill="white" stroke="#231F20" stroke-width="2" stroke-miterlimit="10"/>
<path d="M242.95 20.4702H22.8398V283.44H242.95V20.4702Z" stroke="#231F20" stroke-width="2" stroke-miterlimit="10"/>
<path d="M233.87 28.77H31.9302V275.15H233.87V28.77Z" stroke="#231F20" stroke-miterlimit="10"/>
<path d="M132.54 235.03C184.88 235.03 227.31 192.6 227.31 140.26C227.31 87.9202 184.88 45.4902 132.54 45.4902C80.2 45.4902 37.77 87.9202 37.77 140.26C37.77 192.6 80.2 235.03 132.54 235.03Z" stroke="#231F20" stroke-miterlimit="10"/>
<path d="M110.04 207.07C108.58 208.53 108.09 210.49 105.11 217.27C104.67 218.28 103.97 219.85 103.07 221.79C118.97 223.33 132.72 224.44 144.62 225.22C146.77 223.89 149.34 222.39 152.52 220.65C174.31 208.69 175.61 211.99 183.54 205.76C194.37 197.25 196.88 187.21 201.01 181.17C199.67 179.97 197.72 178.19 195.56 176.07C193.41 173.95 192.76 173.17 192.16 172.33C190.77 170.38 190.39 169.16 188.76 167C187.82 165.76 186.94 164.84 186.38 164.28C186.38 164.28 184.99 163.58 184.91 162.81C184.88 162.56 184.98 162.19 185.59 161.68C183.47 158.01 181.36 154.35 179.24 150.68C178.67 150.34 178.11 150 177.54 149.66L172.33 150C170.89 147.2 169.46 144.41 168.02 141.61L166.55 140.7C166.55 140.69 163.44 136.41 163.94 135.94C164.27 135.63 165.9 137.17 166.43 136.73C166.76 136.46 166.48 135.62 166.43 135.48C165.71 133.24 166.57 126.52 166.09 117.12C165.86 112.61 165.15 100.24 160.54 89.5802C159.53 87.2402 158.46 85.2902 156.91 83.3502C155.12 81.1002 152.72 79.4802 148.18 76.1002C142.86 72.1302 139.78 70.5902 139 70.2102C136.02 68.7502 133.79 68.0602 132.54 67.7202C132.54 67.7202 130.37 67.1202 128.12 66.8102C121.3 65.8702 115.98 67.2302 112.02 68.2802C104 70.4102 98.6304 73.8002 93.5404 77.0102C89.3404 79.6602 87.3104 81.4802 87.4204 81.6602C87.4804 81.7502 88.0304 81.3702 88.6704 81.5502C89.3704 81.7402 89.7804 82.4902 90.0204 83.1202C87.5804 86.2702 80.5204 95.7302 79.1504 100.37C78.6004 102.24 78.3204 103.17 78.2404 104.45C78.1504 105.93 78.3404 107.17 77.9004 109.1C77.7104 109.94 77.5104 110.44 77.3304 110.8C76.8904 111.7 76.5504 111.88 76.0804 112.73C75.8904 113.07 75.4304 113.93 75.2904 115.11C75.1404 116.41 75.4604 117.42 75.6304 117.94C75.7204 118.22 75.9304 118.78 76.9904 120.43C78.4504 122.69 78.5904 122.44 79.1404 123.6C79.8204 125.01 80.0704 126.34 80.1604 126.89C80.2204 127.26 80.2504 127.54 80.2704 127.8C80.3004 128.13 80.4404 129.64 80.2104 131.77C80.1504 132.31 80.0504 133.27 79.7604 134.49C79.5904 135.2 79.3904 135.88 78.1204 139.14C77.2504 141.37 77.2104 141.38 76.9904 142.09C76.5004 143.64 76.1504 144.79 76.2504 146.28C76.3004 147.04 76.3504 147.68 76.7604 148.38C77.4704 149.59 78.6704 150.04 79.1404 150.19C80.0504 150.5 81.5004 150.63 82.4804 150.64C82.7204 150.64 83.4904 150.64 84.2904 151.04C84.6804 151.23 84.8604 151.4 84.9704 151.55C85.1804 151.82 85.2604 152.12 85.3104 152.8C85.3604 153.42 85.3404 153.91 85.3104 154.78C85.2604 155.97 85.2504 156.06 85.3104 156.31C85.3604 156.53 85.5604 157.34 86.2704 157.78C86.5604 157.96 86.8304 158.01 87.0604 158.06C87.9304 158.24 88.3504 157.94 88.6504 158.23C88.9304 158.5 88.8304 159 88.8204 159.02C88.7204 159.5 88.3004 159.56 88.0304 159.98C87.7004 160.49 87.8404 161.11 88.0304 161.91C88.2204 162.71 88.4204 163.58 89.1604 164.01C89.7404 164.35 90.4504 164.3 90.5204 164.29C91.1004 164.24 91.2604 164.01 91.6004 164.12C91.8204 164.19 91.9304 164.34 92.4504 165.31C93.0704 166.45 93.1504 166.66 93.1304 166.95C93.1104 167.34 92.9404 167.44 92.7304 167.91C92.3704 168.72 92.4204 169.45 92.5004 170.91C92.5604 171.89 92.5904 172.39 92.7304 172.72C93.0904 173.59 93.8004 173.95 94.8804 174.76C95.3404 175.1 96.5204 175.97 98.1704 176.23C98.9504 176.36 98.8804 176.2 100.83 176.23C101.63 176.24 102.57 176.26 103.72 176.4C105.85 176.66 105.82 176.98 106.78 176.85C107.98 176.69 108.25 176.14 109.5 176.11C110.14 176.1 110.55 176.29 111.31 176.45C113.89 177 115.96 177.7 117.43 178.21C118.12 178.45 119.7 179 119.7 179C119.76 181.69 119.76 181.72 119.76 181.72C119.41 183.97 117.39 184.4 117.1 186.82C117.04 187.31 117.07 187.71 117.1 187.95C117.1 187.95 115.7 190.6 115 192.03C112.21 197.79 110.81 200.67 111.2 202.69C111.28 203.09 111.56 204.23 111.09 205.47C110.76 206.34 110.21 206.86 110.01 207.06L110.04 207.07Z" fill="white" stroke="#231F20" stroke-miterlimit="10"/>
<path d="M49.208 70.4262C48.8267 70.4262 48.4107 70.3742 47.96 70.2702C47.5094 70.2009 47.284 70.0449 47.284 69.8022C47.284 69.5249 47.5094 69.2822 47.96 69.0742C48.4454 68.9009 48.844 68.8142 49.156 68.8142C51.8947 68.8142 54.148 68.3289 55.916 67.3582C57.7187 66.3529 59.0534 65.1049 59.92 63.6142C60.8214 62.1235 61.272 60.6329 61.272 59.1422C61.272 57.7902 60.8734 56.5942 60.076 55.5542C59.2787 54.5142 57.9614 53.5609 56.124 52.6942C54.3214 51.8275 51.8774 50.9955 48.792 50.1982C48.3414 49.8169 48.012 49.4355 47.804 49.0542C47.6307 48.6729 47.544 48.2569 47.544 47.8062C47.544 47.3209 47.6307 46.7315 47.804 46.0382C48.012 45.3449 48.2547 44.6169 48.532 43.8542C48.8094 43.0569 49.0867 42.2769 49.364 41.5142C49.6414 40.7515 49.8667 40.0929 50.04 39.5382C50.2134 39.0182 50.4734 38.6195 50.82 38.3422C51.1667 38.0302 51.6174 37.8049 52.172 37.6662C52.9694 37.4582 53.784 37.2675 54.616 37.0942C55.448 36.9209 56.3147 36.7649 57.216 36.6262C58.1174 36.4529 59.036 36.3142 59.972 36.2102C60.9427 36.0715 61.9307 35.9502 62.936 35.8462C63.2134 35.8115 63.404 35.8982 63.508 36.1062C63.6467 36.2795 63.6467 36.4875 63.508 36.7302C63.3694 37.0075 63.2134 37.3022 63.04 37.6142C62.9014 37.8915 62.7627 38.1689 62.624 38.4462C62.3814 38.9662 62.104 39.3649 61.792 39.6422C61.5147 39.8849 61.1507 40.0409 60.7 40.1102C60.0414 40.1795 59.2787 40.2662 58.412 40.3702C57.5454 40.4395 56.6787 40.5262 55.812 40.6302C54.9454 40.6995 54.148 40.7689 53.42 40.8382C52.692 40.9075 52.1374 40.9769 51.756 41.0462C51.5134 41.0809 51.2187 41.3929 50.872 41.9822C50.5254 42.5369 50.2134 43.1435 49.936 43.8022C49.6587 44.4262 49.5027 44.8769 49.468 45.1542C49.4334 45.3969 49.4507 45.6049 49.52 45.7782C49.624 45.9515 49.832 46.0729 50.144 46.1422C52.0854 46.6969 53.8534 47.2689 55.448 47.8582C57.0427 48.4129 58.4294 49.0022 59.608 49.6262C61.5494 50.6315 62.988 51.8275 63.924 53.2142C64.8947 54.5662 65.38 56.2995 65.38 58.4142C65.38 60.3209 64.808 62.1062 63.664 63.7702C62.52 65.4342 60.9774 66.8209 59.036 67.9302C58.1 68.4502 57.112 68.8835 56.072 69.2302C55.032 69.6115 53.94 69.9062 52.796 70.1142C51.652 70.3222 50.456 70.4262 49.208 70.4262Z" fill="#231F20"/>
<path d="M222.798 66.636C222.556 66.636 222.174 66.6186 221.654 66.584C221.134 66.5493 220.545 66.5146 219.886 66.48C219.228 66.4453 218.534 66.4106 217.806 66.376C217.113 66.3413 216.437 66.324 215.778 66.324C215.12 66.324 214.184 66.3413 212.97 66.376C211.757 66.4106 210.474 66.4453 209.122 66.48C207.805 66.48 206.644 66.4973 205.638 66.532C204.633 66.5666 203.992 66.584 203.714 66.584C203.576 66.584 203.368 66.48 203.09 66.272C202.813 66.0293 202.674 65.8386 202.674 65.7C202.674 65.5266 202.709 65.4053 202.778 65.336C202.848 65.2666 202.952 65.1626 203.09 65.024L211.982 55.82C213.716 54.0173 215.154 52.0066 216.298 49.788C217.442 47.5346 218.014 45.264 218.014 42.976C218.014 41.1386 217.46 39.7 216.35 38.66C215.241 37.5853 213.941 37.048 212.45 37.048C211.029 37.048 209.712 37.4466 208.498 38.244C207.285 39.0066 206.314 40.012 205.586 41.26C205.482 41.468 205.344 41.6413 205.17 41.78C205.032 41.9186 204.876 41.988 204.702 41.988C204.564 41.988 204.39 41.8493 204.182 41.572C204.009 41.26 203.922 40.8786 203.922 40.428C203.922 40.012 204.165 39.44 204.65 38.712C205.17 37.984 205.881 37.2386 206.782 36.476C207.684 35.7133 208.758 35.072 210.006 34.552C211.254 33.9973 212.606 33.72 214.062 33.72C215.796 33.72 217.286 34.084 218.534 34.812C219.782 35.54 220.736 36.5453 221.394 37.828C222.053 39.1106 222.382 40.6013 222.382 42.3C222.382 43.236 222.209 44.2413 221.862 45.316C221.55 46.3906 221.1 47.448 220.51 48.488C219.956 49.528 219.314 50.4986 218.586 51.4C218.136 51.9546 217.46 52.7 216.558 53.636C215.692 54.5373 214.738 55.508 213.698 56.548C212.693 57.588 211.722 58.576 210.786 59.512C209.885 60.4133 209.14 61.176 208.55 61.8C207.961 62.3893 207.666 62.7186 207.666 62.788C207.666 62.9613 207.909 63.0826 208.394 63.152C208.984 63.1866 209.642 63.2213 210.37 63.256C211.133 63.2906 212 63.308 212.97 63.308C213.976 63.308 214.981 63.2906 215.986 63.256C216.992 63.2213 217.962 63.1866 218.898 63.152C219.904 63.0826 220.684 62.996 221.238 62.892C221.793 62.788 222.261 62.58 222.642 62.268C223.024 61.9213 223.422 61.4013 223.838 60.708C223.977 60.5 224.15 60.2573 224.358 59.98C224.601 59.668 224.861 59.512 225.138 59.512C225.312 59.512 225.416 59.5813 225.45 59.72C225.485 59.8586 225.502 59.9973 225.502 60.136C225.502 60.3093 225.398 60.656 225.19 61.176C225.017 61.6613 224.809 62.268 224.566 62.996C224.324 63.724 224.116 64.5213 223.942 65.388C223.838 65.9426 223.665 66.2893 223.422 66.428C223.18 66.5666 222.972 66.636 222.798 66.636Z" fill="#231F20"/>
<path d="M42.4422 267.202C42.2442 267.202 42.0902 267.158 41.9802 267.07C41.8702 267.004 41.8262 266.905 41.8482 266.773C41.9142 266.443 42.2442 266.223 42.8382 266.113C43.6522 265.937 44.2792 265.695 44.7192 265.387C45.1592 265.079 45.4892 264.573 45.7092 263.869L50.3292 248.887C50.5492 248.161 50.5602 247.644 50.3622 247.336C50.1642 247.028 49.7022 246.786 48.9762 246.61C48.7342 246.566 48.5692 246.489 48.4812 246.379C48.3932 246.247 48.3712 246.093 48.4152 245.917C48.4372 245.785 48.5362 245.686 48.7122 245.62C48.8882 245.532 49.0752 245.488 49.2732 245.488C49.7792 245.488 50.2632 245.499 50.7252 245.521C51.2092 245.543 51.6712 245.565 52.1112 245.587C52.5512 245.609 53.0022 245.62 53.4642 245.62C54.6742 245.62 55.8072 245.62 56.8632 245.62C57.9192 245.62 59.0522 245.62 60.2622 245.62C61.3402 245.62 62.4512 245.62 63.5952 245.62C64.7392 245.62 65.9162 245.62 67.1262 245.62C67.5662 245.62 68.0062 245.609 68.4462 245.587C68.8862 245.565 69.3372 245.543 69.7992 245.521C70.2832 245.499 70.7782 245.488 71.2842 245.488C71.4822 245.488 71.6362 245.532 71.7462 245.62C71.8562 245.686 71.9002 245.785 71.8782 245.917C71.8122 246.269 71.4712 246.5 70.8552 246.61C70.0412 246.786 69.4362 247.028 69.0402 247.336C68.6442 247.644 68.3252 248.161 68.0832 248.887L63.4962 263.869C63.2762 264.573 63.2872 265.079 63.5292 265.387C63.7932 265.695 64.2772 265.937 64.9812 266.113C65.2232 266.157 65.3882 266.234 65.4762 266.344C65.5862 266.454 65.6192 266.597 65.5752 266.773C65.5532 266.905 65.4542 267.004 65.2782 267.07C65.1022 267.158 64.9152 267.202 64.7172 267.202C64.2332 267.202 63.7602 267.18 63.2982 267.136C62.8362 267.114 62.3742 267.092 61.9122 267.07C61.4502 267.048 60.9882 267.037 60.5262 267.037C60.0642 267.037 59.5692 267.048 59.0412 267.07C58.5132 267.092 57.9852 267.114 57.4572 267.136C56.9292 267.158 56.4122 267.169 55.9062 267.169C55.7082 267.169 55.5762 267.136 55.5102 267.07C55.4442 267.004 55.4332 266.894 55.4772 266.74C55.4992 266.564 55.5762 266.432 55.7082 266.344C55.8402 266.256 56.0492 266.179 56.3352 266.113C57.2152 265.893 57.8752 265.629 58.3152 265.321C58.7772 265.013 59.1072 264.518 59.3052 263.836L64.1892 248.095C64.3212 247.655 64.3322 247.347 64.2222 247.171C64.1342 246.995 63.8702 246.907 63.4302 246.907C62.7922 246.907 62.2092 246.896 61.6812 246.874C61.1752 246.83 60.5922 246.808 59.9322 246.808C59.2942 246.808 58.7112 246.819 58.1832 246.841C57.6552 246.841 57.0832 246.852 56.4672 246.874C56.0052 246.874 55.6422 246.962 55.3782 247.138C55.1142 247.314 54.9162 247.622 54.7842 248.062L49.9002 263.836C49.7022 264.518 49.7242 265.013 49.9662 265.321C50.2082 265.629 50.7142 265.893 51.4842 266.113C51.7262 266.179 51.8912 266.256 51.9792 266.344C52.0672 266.432 52.1002 266.564 52.0782 266.74C52.0562 266.894 51.9572 267.004 51.7812 267.07C51.6272 267.136 51.4512 267.169 51.2532 267.169C50.7472 267.169 50.2412 267.158 49.7352 267.136C49.2292 267.114 48.7342 267.092 48.2502 267.07C47.7662 267.048 47.3042 267.037 46.8642 267.037C46.4022 267.037 45.9182 267.048 45.4122 267.07C44.9062 267.092 44.4002 267.114 43.8942 267.136C43.3882 267.18 42.9042 267.202 42.4422 267.202ZM67.5374 267.235C67.2954 267.235 67.1304 267.191 67.0424 267.103C66.9544 267.015 66.9104 266.905 66.9104 266.773C66.9544 266.487 67.2954 266.278 67.9334 266.146C68.8574 265.926 69.5284 265.673 69.9464 265.387C70.3644 265.101 70.6834 264.595 70.9034 263.869L75.4904 248.92C75.7544 248.106 75.7654 247.556 75.5234 247.27C75.3034 246.962 74.7864 246.731 73.9724 246.577C73.6864 246.511 73.4884 246.423 73.3784 246.313C73.2684 246.203 73.2354 246.082 73.2794 245.95C73.3014 245.796 73.4114 245.686 73.6094 245.62C73.8294 245.532 74.1374 245.488 74.5334 245.488C74.7754 245.488 75.1274 245.499 75.5894 245.521C76.0734 245.543 76.5794 245.576 77.1074 245.62C77.6574 245.642 78.1524 245.653 78.5924 245.653L84.0044 245.62C85.0824 245.62 85.9184 245.587 86.5124 245.521C87.1284 245.455 87.5794 245.389 87.8654 245.323C88.1734 245.257 88.3824 245.224 88.4924 245.224C88.6244 245.224 88.7344 245.279 88.8224 245.389C88.9324 245.499 88.9874 245.642 88.9874 245.818C88.9874 246.038 88.9214 246.368 88.7894 246.808C88.6574 247.248 88.5144 247.743 88.3604 248.293C88.2064 248.821 88.1184 249.349 88.0964 249.877C88.0744 250.097 87.9974 250.262 87.8654 250.372C87.7554 250.482 87.6454 250.537 87.5354 250.537C87.4474 250.537 87.3484 250.482 87.2384 250.372C87.1504 250.24 87.0954 250.064 87.0734 249.844C87.0294 248.7 86.8644 247.886 86.5784 247.402C86.3144 246.918 85.7534 246.676 84.8954 246.676H81.8264C81.2984 246.676 80.8804 246.808 80.5724 247.072C80.2644 247.336 80.0004 247.853 79.7804 248.623L77.9984 254.563C77.8884 254.893 77.8774 255.124 77.9654 255.256C78.0534 255.388 78.2514 255.454 78.5594 255.454L81.9254 255.388C82.4974 255.388 82.9704 255.234 83.3444 254.926C83.7404 254.618 84.0924 254.222 84.4004 253.738C84.5324 253.54 84.6864 253.364 84.8624 253.21C85.0384 253.034 85.2144 252.946 85.3904 252.946C85.5224 252.946 85.5994 253.023 85.6214 253.177C85.6654 253.331 85.6324 253.529 85.5224 253.771C85.3244 254.211 85.1484 254.629 84.9944 255.025C84.8404 255.421 84.6974 255.806 84.5654 256.18C84.4334 256.576 84.3124 256.983 84.2024 257.401C84.1144 257.819 84.0154 258.281 83.9054 258.787C83.8394 259.029 83.7514 259.227 83.6414 259.381C83.5534 259.513 83.4544 259.579 83.3444 259.579C83.1904 259.579 83.0694 259.491 82.9814 259.315C82.8934 259.117 82.8494 258.93 82.8494 258.754C82.8714 258.072 82.7944 257.555 82.6184 257.203C82.4424 256.851 82.1454 256.675 81.7274 256.675L78.2624 256.642C77.9764 256.642 77.7234 256.708 77.5034 256.84C77.2834 256.95 77.1294 257.181 77.0414 257.533L75.3584 263.374C75.0944 264.32 75.0724 264.991 75.2924 265.387C75.5344 265.783 76.0514 265.981 76.8434 265.981H80.4734C80.9574 265.981 81.4194 265.904 81.8594 265.75C82.3214 265.596 82.7394 265.387 83.1134 265.123C83.5314 264.837 83.9164 264.452 84.2684 263.968C84.6204 263.462 84.9724 262.934 85.3244 262.384C85.4344 262.23 85.5224 262.109 85.5884 262.021C85.6764 261.933 85.7864 261.889 85.9184 261.889C86.0504 261.889 86.1384 261.955 86.1824 262.087C86.2264 262.219 86.2484 262.395 86.2484 262.615C86.2484 262.835 86.1604 263.198 85.9844 263.704C85.8084 264.21 85.5994 264.749 85.3574 265.321C85.1154 265.871 84.8624 266.322 84.5984 266.674C84.4884 266.872 84.3454 267.004 84.1694 267.07C84.0154 267.158 83.8284 267.202 83.6084 267.202C83.1464 267.202 82.5634 267.191 81.8594 267.169C81.1554 267.169 80.3744 267.158 79.5164 267.136C78.6804 267.136 77.8114 267.125 76.9094 267.103C76.0294 267.103 75.1604 267.092 74.3024 267.07C73.4444 267.07 72.6524 267.07 71.9264 267.07C71.4644 267.07 70.9804 267.081 70.4744 267.103C69.9684 267.125 69.4734 267.147 68.9894 267.169C68.5054 267.213 68.0214 267.235 67.5374 267.235ZM91.8986 267.202C91.7006 267.202 91.5356 267.158 91.4036 267.07C91.2716 267.004 91.2166 266.905 91.2386 266.773C91.2826 266.597 91.4036 266.465 91.6016 266.377C91.7996 266.267 92.0416 266.179 92.3276 266.113C93.1856 265.937 93.8566 265.695 94.3406 265.387C94.8246 265.057 95.1766 264.529 95.3966 263.803L99.6206 249.712C99.9726 248.502 100.138 247.721 100.116 247.369C100.094 247.017 99.9066 246.841 99.5546 246.841H97.6076C96.7276 246.841 95.9466 247.05 95.2646 247.468C94.5826 247.886 93.9996 248.359 93.5156 248.887C93.3396 249.085 93.1306 249.316 92.8886 249.58C92.6466 249.844 92.4046 250.075 92.1626 250.273C91.9206 250.471 91.7116 250.57 91.5356 250.57C91.3596 250.57 91.2496 250.526 91.2056 250.438C91.1836 250.35 91.1726 250.229 91.1726 250.075C91.1946 249.965 91.2386 249.833 91.3046 249.679C91.3706 249.503 91.4696 249.316 91.6016 249.118C92.1076 248.458 92.5146 247.831 92.8226 247.237C93.1306 246.621 93.4056 245.961 93.6476 245.257C93.7356 245.015 93.8456 244.828 93.9776 244.696C94.1316 244.542 94.2856 244.465 94.4396 244.465C94.6156 244.465 94.8026 244.542 95.0006 244.696C95.1986 244.85 95.3856 244.993 95.5616 245.125C95.7156 245.235 95.8696 245.334 96.0236 245.422C96.1996 245.51 96.4746 245.587 96.8486 245.653C97.2226 245.719 97.7616 245.752 98.4656 245.752L108.498 245.719C109.334 245.719 109.972 245.697 110.412 245.653C110.874 245.587 111.204 245.521 111.402 245.455C111.622 245.367 111.776 245.29 111.864 245.224C112.172 245.092 112.436 244.938 112.656 244.762C112.876 244.586 113.074 244.498 113.25 244.498C113.536 244.498 113.635 244.652 113.547 244.96C113.547 245.07 113.514 245.202 113.448 245.356C113.382 245.488 113.316 245.609 113.25 245.719C112.964 246.225 112.667 246.841 112.359 247.567C112.073 248.271 111.82 249.041 111.6 249.877C111.512 250.185 111.413 250.416 111.303 250.57C111.215 250.702 111.094 250.768 110.94 250.768C110.742 250.768 110.599 250.68 110.511 250.504C110.445 250.328 110.412 250.064 110.412 249.712C110.39 248.766 110.203 248.051 109.851 247.567C109.521 247.083 108.916 246.841 108.036 246.841H105.825C105.495 246.841 105.22 246.918 105 247.072C104.802 247.204 104.615 247.479 104.439 247.897C104.263 248.315 104.043 248.931 103.779 249.745L99.5546 263.77C99.3566 264.474 99.3896 264.991 99.6536 265.321C99.9396 265.651 100.468 265.915 101.238 266.113C101.48 266.179 101.656 266.256 101.766 266.344C101.876 266.432 101.92 266.564 101.898 266.74C101.854 266.894 101.744 267.004 101.568 267.07C101.414 267.136 101.227 267.169 101.007 267.169C100.523 267.169 100.017 267.158 99.4886 267.136C98.9606 267.114 98.4436 267.092 97.9376 267.07C97.4536 267.048 96.9916 267.037 96.5516 267.037C96.0676 267.037 95.5616 267.048 95.0336 267.07C94.5276 267.092 93.9996 267.114 93.4496 267.136C92.9216 267.18 92.4046 267.202 91.8986 267.202ZM107.756 267.235C107.514 267.235 107.349 267.191 107.261 267.103C107.173 267.015 107.129 266.905 107.129 266.773C107.173 266.487 107.514 266.278 108.152 266.146C109.076 265.926 109.747 265.673 110.165 265.387C110.583 265.101 110.902 264.595 111.122 263.869L115.709 248.92C115.973 248.106 115.984 247.556 115.742 247.27C115.522 246.962 115.005 246.731 114.191 246.577C113.905 246.511 113.707 246.423 113.597 246.313C113.487 246.203 113.454 246.082 113.498 245.95C113.52 245.796 113.63 245.686 113.828 245.62C114.048 245.532 114.356 245.488 114.752 245.488C114.994 245.488 115.346 245.499 115.808 245.521C116.292 245.543 116.798 245.576 117.326 245.62C117.876 245.642 118.371 245.653 118.811 245.653L124.223 245.62C125.301 245.62 126.137 245.587 126.731 245.521C127.347 245.455 127.798 245.389 128.084 245.323C128.392 245.257 128.601 245.224 128.711 245.224C128.843 245.224 128.953 245.279 129.041 245.389C129.151 245.499 129.206 245.642 129.206 245.818C129.206 246.038 129.14 246.368 129.008 246.808C128.876 247.248 128.733 247.743 128.579 248.293C128.425 248.821 128.337 249.349 128.315 249.877C128.293 250.097 128.216 250.262 128.084 250.372C127.974 250.482 127.864 250.537 127.754 250.537C127.666 250.537 127.567 250.482 127.457 250.372C127.369 250.24 127.314 250.064 127.292 249.844C127.248 248.7 127.083 247.886 126.797 247.402C126.533 246.918 125.972 246.676 125.114 246.676H122.045C121.517 246.676 121.099 246.808 120.791 247.072C120.483 247.336 120.219 247.853 119.999 248.623L118.217 254.563C118.107 254.893 118.096 255.124 118.184 255.256C118.272 255.388 118.47 255.454 118.778 255.454L122.144 255.388C122.716 255.388 123.189 255.234 123.563 254.926C123.959 254.618 124.311 254.222 124.619 253.738C124.751 253.54 124.905 253.364 125.081 253.21C125.257 253.034 125.433 252.946 125.609 252.946C125.741 252.946 125.818 253.023 125.84 253.177C125.884 253.331 125.851 253.529 125.741 253.771C125.543 254.211 125.367 254.629 125.213 255.025C125.059 255.421 124.916 255.806 124.784 256.18C124.652 256.576 124.531 256.983 124.421 257.401C124.333 257.819 124.234 258.281 124.124 258.787C124.058 259.029 123.97 259.227 123.86 259.381C123.772 259.513 123.673 259.579 123.563 259.579C123.409 259.579 123.288 259.491 123.2 259.315C123.112 259.117 123.068 258.93 123.068 258.754C123.09 258.072 123.013 257.555 122.837 257.203C122.661 256.851 122.364 256.675 121.946 256.675L118.481 256.642C118.195 256.642 117.942 256.708 117.722 256.84C117.502 256.95 117.348 257.181 117.26 257.533L115.577 263.374C115.313 264.32 115.291 264.991 115.511 265.387C115.753 265.783 116.27 265.981 117.062 265.981H120.692C121.176 265.981 121.638 265.904 122.078 265.75C122.54 265.596 122.958 265.387 123.332 265.123C123.75 264.837 124.135 264.452 124.487 263.968C124.839 263.462 125.191 262.934 125.543 262.384C125.653 262.23 125.741 262.109 125.807 262.021C125.895 261.933 126.005 261.889 126.137 261.889C126.269 261.889 126.357 261.955 126.401 262.087C126.445 262.219 126.467 262.395 126.467 262.615C126.467 262.835 126.379 263.198 126.203 263.704C126.027 264.21 125.818 264.749 125.576 265.321C125.334 265.871 125.081 266.322 124.817 266.674C124.707 266.872 124.564 267.004 124.388 267.07C124.234 267.158 124.047 267.202 123.827 267.202C123.365 267.202 122.782 267.191 122.078 267.169C121.374 267.169 120.593 267.158 119.735 267.136C118.899 267.136 118.03 267.125 117.128 267.103C116.248 267.103 115.379 267.092 114.521 267.07C113.663 267.07 112.871 267.07 112.145 267.07C111.683 267.07 111.199 267.081 110.693 267.103C110.187 267.125 109.692 267.147 109.208 267.169C108.724 267.213 108.24 267.235 107.756 267.235ZM127.497 267.202C127.321 267.202 127.167 267.158 127.035 267.07C126.903 267.004 126.837 266.905 126.837 266.773C126.837 266.597 126.947 266.454 127.167 266.344C127.387 266.234 127.64 266.157 127.926 266.113C128.784 265.915 129.422 265.673 129.84 265.387C130.28 265.079 130.61 264.562 130.83 263.836L135.384 249.085C135.648 248.271 135.648 247.677 135.384 247.303C135.142 246.929 134.581 246.676 133.701 246.544C133.415 246.478 133.206 246.401 133.074 246.313C132.942 246.203 132.898 246.082 132.942 245.95C132.964 245.796 133.085 245.686 133.305 245.62C133.525 245.532 133.745 245.488 133.965 245.488C134.273 245.488 134.669 245.499 135.153 245.521C135.637 245.543 136.132 245.565 136.638 245.587C137.144 245.609 137.584 245.609 137.958 245.587C138.266 245.587 138.64 245.576 139.08 245.554C139.542 245.51 140.026 245.477 140.532 245.455C141.06 245.411 141.544 245.389 141.984 245.389C143.48 245.389 144.767 245.653 145.845 246.181C146.923 246.709 147.748 247.435 148.32 248.359C148.892 249.261 149.167 250.339 149.145 251.593C149.123 252.671 148.859 253.672 148.353 254.596C147.847 255.52 147.154 256.323 146.274 257.005C145.394 257.687 144.382 258.215 143.238 258.589C142.094 258.963 140.873 259.15 139.575 259.15C139.157 259.15 138.805 259.106 138.519 259.018C138.255 258.908 138.123 258.743 138.123 258.523C138.123 258.391 138.2 258.292 138.354 258.226C138.508 258.138 138.684 258.083 138.882 258.061C139.124 258.017 139.366 257.973 139.608 257.929C139.85 257.885 140.114 257.83 140.4 257.764C141.368 257.544 142.204 257.126 142.908 256.51C143.634 255.872 144.184 255.102 144.558 254.2C144.954 253.298 145.152 252.341 145.152 251.329C145.152 250.185 144.987 249.261 144.657 248.557C144.327 247.853 143.854 247.347 143.238 247.039C142.644 246.731 141.951 246.577 141.159 246.577C140.961 246.577 140.785 246.632 140.631 246.742C140.499 246.83 140.356 247.028 140.202 247.336C140.07 247.622 139.894 248.084 139.674 248.722L135.087 263.638C134.823 264.408 134.845 264.969 135.153 265.321C135.461 265.651 136.044 265.915 136.902 266.113C137.166 266.157 137.364 266.234 137.496 266.344C137.628 266.432 137.694 266.564 137.694 266.74C137.694 266.894 137.573 267.004 137.331 267.07C137.111 267.136 136.88 267.169 136.638 267.169C136.132 267.169 135.604 267.147 135.054 267.103C134.504 267.081 133.976 267.059 133.47 267.037C132.964 267.015 132.502 267.004 132.084 267.004C131.38 267.004 130.632 267.037 129.84 267.103C129.07 267.169 128.289 267.202 127.497 267.202ZM146.6 267.235C146.38 267.235 146.226 267.191 146.138 267.103C146.028 267.015 145.984 266.905 146.006 266.773C146.05 266.487 146.38 266.278 146.996 266.146C147.81 265.948 148.47 265.706 148.976 265.42C149.482 265.112 149.845 264.595 150.065 263.869L154.685 248.887C154.905 248.139 154.905 247.611 154.685 247.303C154.465 246.995 153.97 246.753 153.2 246.577C152.958 246.533 152.782 246.456 152.672 246.346C152.584 246.214 152.562 246.06 152.606 245.884C152.628 245.752 152.727 245.653 152.903 245.587C153.079 245.499 153.266 245.455 153.464 245.455C153.816 245.455 154.311 245.466 154.949 245.488C155.587 245.51 156.379 245.543 157.325 245.587C158.271 245.609 159.349 245.62 160.559 245.62C161.351 245.62 162.11 245.609 162.836 245.587C163.584 245.565 164.277 245.543 164.915 245.521C165.553 245.477 166.125 245.444 166.631 245.422C167.159 245.378 167.599 245.356 167.951 245.356C168.347 245.356 168.512 245.499 168.446 245.785C168.336 246.313 168.171 246.929 167.951 247.633C167.731 248.337 167.533 249.052 167.357 249.778C167.313 249.932 167.225 250.075 167.093 250.207C166.983 250.317 166.873 250.372 166.763 250.372C166.631 250.372 166.521 250.306 166.433 250.174C166.367 250.042 166.334 249.899 166.334 249.745C166.334 249.085 166.279 248.546 166.169 248.128C166.059 247.688 165.85 247.358 165.542 247.138C165.256 246.896 164.772 246.775 164.09 246.775H160.592C160.218 246.775 159.888 246.852 159.602 247.006C159.338 247.16 159.129 247.49 158.975 247.996L157.259 253.969C157.171 254.321 157.171 254.596 157.259 254.794C157.347 254.97 157.545 255.058 157.853 255.058C158.271 255.036 158.645 255.003 158.975 254.959C159.327 254.915 159.756 254.893 160.262 254.893C161.362 254.893 162.341 255.124 163.199 255.586C164.057 256.048 164.728 256.675 165.212 257.467C165.718 258.237 165.971 259.117 165.971 260.107C165.971 261.581 165.564 262.846 164.75 263.902C163.958 264.958 162.814 265.772 161.318 266.344C159.844 266.916 158.073 267.202 156.005 267.202C155.675 267.202 155.334 267.191 154.982 267.169C154.652 267.147 154.201 267.125 153.629 267.103C153.057 267.081 152.276 267.07 151.286 267.07C150.538 267.07 149.746 267.092 148.91 267.136C148.096 267.202 147.326 267.235 146.6 267.235ZM156.269 266.08C157.083 266.08 157.809 265.893 158.447 265.519C159.107 265.145 159.668 264.661 160.13 264.067C160.614 263.451 160.988 262.78 161.252 262.054C161.516 261.328 161.648 260.613 161.648 259.909C161.648 258.567 161.318 257.577 160.658 256.939C159.998 256.279 159.151 255.949 158.117 255.949C157.633 255.949 157.237 256.059 156.929 256.279C156.621 256.499 156.401 256.829 156.269 257.269C156.049 257.951 155.818 258.666 155.576 259.414C155.356 260.162 155.136 260.91 154.916 261.658C154.696 262.384 154.487 263.077 154.289 263.737C154.047 264.551 154.113 265.145 154.487 265.519C154.883 265.893 155.477 266.08 156.269 266.08ZM170.959 268.291C170.167 268.291 169.529 267.983 169.045 267.367C168.583 266.773 168.352 265.97 168.352 264.958C168.352 264.782 168.44 264.606 168.616 264.43C168.814 264.254 168.957 264.166 169.045 264.166C169.221 264.166 169.507 264.243 169.903 264.397C170.321 264.551 170.816 264.705 171.388 264.859C171.96 265.013 172.565 265.09 173.203 265.09C174.039 265.09 174.809 264.914 175.513 264.562C176.239 264.21 176.844 263.693 177.328 263.011C177.548 262.747 177.658 262.505 177.658 262.285C177.68 262.065 177.669 261.779 177.625 261.427L174.721 249.25C174.611 248.678 174.457 248.216 174.259 247.864C174.061 247.512 173.819 247.248 173.533 247.072C173.247 246.874 172.895 246.731 172.477 246.643C172.257 246.599 172.081 246.522 171.949 246.412C171.817 246.28 171.773 246.126 171.817 245.95C171.839 245.796 171.949 245.686 172.147 245.62C172.345 245.532 172.543 245.488 172.741 245.488C173.137 245.488 173.588 245.499 174.094 245.521C174.6 245.543 175.106 245.565 175.612 245.587C176.14 245.609 176.624 245.62 177.064 245.62C177.482 245.62 177.933 245.609 178.417 245.587C178.923 245.565 179.418 245.543 179.902 245.521C180.386 245.499 180.804 245.488 181.156 245.488C181.376 245.488 181.563 245.532 181.717 245.62C181.871 245.686 181.937 245.796 181.915 245.95C181.871 246.126 181.728 246.28 181.486 246.412C181.266 246.522 181.013 246.599 180.727 246.643C179.957 246.775 179.429 246.984 179.143 247.27C178.857 247.534 178.802 248.073 178.978 248.887L180.925 257.236C180.947 257.368 180.969 257.478 180.991 257.566C181.035 257.632 181.09 257.665 181.156 257.665C181.222 257.665 181.277 257.632 181.321 257.566C181.387 257.478 181.464 257.379 181.552 257.269L186.898 249.283C187.426 248.491 187.569 247.886 187.327 247.468C187.107 247.05 186.634 246.786 185.908 246.676C185.688 246.632 185.49 246.555 185.314 246.445C185.16 246.313 185.094 246.159 185.116 245.983C185.138 245.851 185.259 245.752 185.479 245.686C185.699 245.598 185.93 245.554 186.172 245.554C186.788 245.554 187.338 245.576 187.822 245.62C188.306 245.642 188.845 245.653 189.439 245.653C190.077 245.653 190.671 245.631 191.221 245.587C191.793 245.521 192.354 245.488 192.904 245.488C193.146 245.488 193.344 245.521 193.498 245.587C193.652 245.653 193.707 245.774 193.663 245.95C193.641 246.148 193.52 246.291 193.3 246.379C193.102 246.467 192.849 246.544 192.541 246.61C191.903 246.764 191.298 247.039 190.726 247.435C190.176 247.831 189.692 248.326 189.274 248.92L178.78 263.341C178.01 264.441 177.174 265.365 176.272 266.113C175.37 266.839 174.468 267.378 173.566 267.73C172.664 268.104 171.795 268.291 170.959 268.291ZM188.663 267.202C188.487 267.202 188.333 267.158 188.201 267.07C188.069 267.004 188.003 266.905 188.003 266.773C188.003 266.597 188.113 266.454 188.333 266.344C188.553 266.234 188.806 266.157 189.092 266.113C189.95 265.915 190.588 265.673 191.006 265.387C191.446 265.079 191.776 264.562 191.996 263.836L196.55 249.085C196.814 248.271 196.814 247.677 196.55 247.303C196.308 246.929 195.747 246.676 194.867 246.544C194.581 246.478 194.372 246.401 194.24 246.313C194.108 246.203 194.064 246.082 194.108 245.95C194.13 245.796 194.251 245.686 194.471 245.62C194.691 245.532 194.911 245.488 195.131 245.488C195.439 245.488 195.835 245.499 196.319 245.521C196.803 245.543 197.298 245.565 197.804 245.587C198.31 245.609 198.75 245.609 199.124 245.587C199.432 245.587 199.806 245.576 200.246 245.554C200.708 245.51 201.192 245.477 201.698 245.455C202.226 245.411 202.71 245.389 203.15 245.389C204.646 245.389 205.933 245.653 207.011 246.181C208.089 246.709 208.914 247.435 209.486 248.359C210.058 249.261 210.333 250.339 210.311 251.593C210.289 252.671 210.025 253.672 209.519 254.596C209.013 255.52 208.32 256.323 207.44 257.005C206.56 257.687 205.548 258.215 204.404 258.589C203.26 258.963 202.039 259.15 200.741 259.15C200.323 259.15 199.971 259.106 199.685 259.018C199.421 258.908 199.289 258.743 199.289 258.523C199.289 258.391 199.366 258.292 199.52 258.226C199.674 258.138 199.85 258.083 200.048 258.061C200.29 258.017 200.532 257.973 200.774 257.929C201.016 257.885 201.28 257.83 201.566 257.764C202.534 257.544 203.37 257.126 204.074 256.51C204.8 255.872 205.35 255.102 205.724 254.2C206.12 253.298 206.318 252.341 206.318 251.329C206.318 250.185 206.153 249.261 205.823 248.557C205.493 247.853 205.02 247.347 204.404 247.039C203.81 246.731 203.117 246.577 202.325 246.577C202.127 246.577 201.951 246.632 201.797 246.742C201.665 246.83 201.522 247.028 201.368 247.336C201.236 247.622 201.06 248.084 200.84 248.722L196.253 263.638C195.989 264.408 196.011 264.969 196.319 265.321C196.627 265.651 197.21 265.915 198.068 266.113C198.332 266.157 198.53 266.234 198.662 266.344C198.794 266.432 198.86 266.564 198.86 266.74C198.86 266.894 198.739 267.004 198.497 267.07C198.277 267.136 198.046 267.169 197.804 267.169C197.298 267.169 196.77 267.147 196.22 267.103C195.67 267.081 195.142 267.059 194.636 267.037C194.13 267.015 193.668 267.004 193.25 267.004C192.546 267.004 191.798 267.037 191.006 267.103C190.236 267.169 189.455 267.202 188.663 267.202ZM207.667 267.202C207.469 267.202 207.315 267.158 207.205 267.07C207.095 267.004 207.051 266.905 207.073 266.773C207.139 266.443 207.48 266.223 208.096 266.113C208.954 265.915 209.636 265.673 210.142 265.387C210.648 265.079 211.011 264.562 211.231 263.836L215.818 248.92C216.06 248.172 216.071 247.655 215.851 247.369C215.631 247.061 215.158 246.808 214.432 246.61C214.168 246.544 213.992 246.456 213.904 246.346C213.816 246.214 213.783 246.082 213.805 245.95C213.827 245.796 213.926 245.686 214.102 245.62C214.278 245.532 214.487 245.488 214.729 245.488C215.235 245.488 215.884 245.51 216.676 245.554C217.49 245.598 218.238 245.62 218.92 245.62H226.444C227.06 245.62 227.599 245.576 228.061 245.488C228.523 245.378 228.831 245.323 228.985 245.323C229.183 245.323 229.337 245.378 229.447 245.488C229.557 245.576 229.601 245.686 229.579 245.818C229.491 246.17 229.37 246.621 229.216 247.171C229.084 247.699 228.941 248.26 228.787 248.854C228.633 249.426 228.49 249.954 228.358 250.438C228.314 250.592 228.226 250.735 228.094 250.867C227.984 250.977 227.874 251.032 227.764 251.032C227.632 251.032 227.522 250.966 227.434 250.834C227.346 250.702 227.302 250.559 227.302 250.405C227.302 249.855 227.28 249.327 227.236 248.821C227.214 248.293 227.126 247.875 226.972 247.567C226.84 247.325 226.62 247.127 226.312 246.973C226.026 246.819 225.641 246.742 225.157 246.742H222.088C221.714 246.742 221.351 246.863 220.999 247.105C220.669 247.347 220.416 247.787 220.24 248.425L215.62 263.836C215.422 264.518 215.444 265.013 215.686 265.321C215.95 265.607 216.456 265.871 217.204 266.113C217.446 266.179 217.611 266.256 217.699 266.344C217.809 266.432 217.842 266.564 217.798 266.74C217.776 266.894 217.688 267.004 217.534 267.07C217.38 267.136 217.193 267.169 216.973 267.169C216.467 267.169 215.95 267.158 215.422 267.136C214.916 267.114 214.41 267.092 213.904 267.07C213.42 267.048 212.947 267.037 212.485 267.037C211.715 267.037 210.912 267.059 210.076 267.103C209.24 267.169 208.437 267.202 207.667 267.202Z" fill="#231F20"/>
</svg>
