<?xml version="1.0" encoding="UTF-8"?>
<svg id="Layer_1" data-name="Layer 1" xmlns="http://www.w3.org/2000/svg" viewBox="0 0 341.31 174.81">
  <defs>
    <style>
      .cls-1, .cls-2 {
        fill: none;
      }

      .cls-1, .cls-2, .cls-3, .cls-4 {
        stroke: #231f20;
      }

      .cls-1, .cls-2, .cls-3, .cls-4, .cls-5 {
        stroke-miterlimit: 10;
      }

      .cls-6 {
        letter-spacing: .1em;
      }

      .cls-2 {
        stroke-dasharray: 0 5;
        stroke-width: .5px;
      }

      .cls-7, .cls-3, .cls-5 {
        fill: #fff;
      }

      .cls-8 {
        letter-spacing: .1em;
      }

      .cls-9 {
        letter-spacing: .03em;
      }

      .cls-10 {
        letter-spacing: .1em;
      }

      .cls-11 {
        letter-spacing: .1em;
      }

      .cls-4, .cls-12, .cls-13, .cls-14, .cls-15 {
        fill: #231f20;
      }

      .cls-16 {
        letter-spacing: .08em;
      }

      .cls-17 {
        letter-spacing: .18em;
      }

      .cls-12 {
        font-size: 27px;
      }

      .cls-12, .cls-14 {
        font-family: EBGaramond-SemiBoldItalic, 'EB Garamond';
        font-variation-settings: 'wght' 600;
      }

      .cls-18 {
        letter-spacing: .09em;
      }

      .cls-19 {
        letter-spacing: .09em;
      }

      .cls-20 {
        letter-spacing: .09em;
      }

      .cls-13 {
        font-family: EBGaramond-Italic, 'EB Garamond';
        font-size: 10px;
        font-variation-settings: 'wght' 400;
      }

      .cls-21 {
        letter-spacing: .2em;
      }

      .cls-22 {
        letter-spacing: .05em;
      }

      .cls-5 {
        stroke: #000;
      }

      .cls-14, .cls-15 {
        font-size: 18px;
      }

      .cls-15 {
        font-family: EBGaramond-Medium, 'EB Garamond';
        font-variation-settings: 'wght' 500;
      }

      .cls-23 {
        letter-spacing: .12em;
      }
    </style>
  </defs>
  <path class="cls-3" d="M340.81,38.19v-14.42c-6.01,0-12.02-2.27-16.61-6.81s-6.88-10.5-6.88-16.45H23.99c0,5.95-2.29,11.91-6.88,16.45-4.59,4.54-10.6,6.81-16.61,6.81v14.29H14.56v14.06H.5v14.06H14.56v14.06H.5v14.06H14.56v14.06H.5v14.06H14.56v14.06H.5v14.56c6.01,0,12.02,2.27,16.61,6.81,4.59,4.54,6.88,10.5,6.88,16.45H317.32c0-5.95,2.29-11.91,6.88-16.45s10.6-6.81,16.61-6.81v-14.42h-14.06v-14.06h14.06v-14.06h-14.06v-14.06h14.06v-14.06h-14.06v-14.06h14.06v-14.06h-14.06v-14.06h14.06Z"/>
  <rect class="cls-3" x="28.06" y="19.62" width="285.19" height="135.56" rx="9.08" ry="9.08"/>
  <line class="cls-1" x1="273.33" y1="155.19" x2="273.33" y2="19.62"/>
  <text class="cls-12" transform="translate(149.61 47.44)"><tspan class="cls-21" x="0" y="0">БИЛЕ</tspan><tspan class="cls-17" x="93.82" y="0">Т</tspan></text>
  <text class="cls-14" transform="translate(148.75 136.46)"><tspan class="cls-11" x="0" y="0">Н</tspan><tspan class="cls-20" x="15.7" y="0">А</tspan><tspan class="cls-11" x="30.29" y="0"> </tspan><tspan class="cls-16" x="36.18" y="0">О</tspan><tspan class="cls-10" x="50.02" y="0">ДН</tspan><tspan class="cls-19" x="79.76" y="0">О</tspan><tspan class="cls-6" x="93.82" y="0">Г</tspan><tspan class="cls-18" x="105.01" y="0">О</tspan></text>
  <text class="cls-15" transform="translate(297.79 140.34) rotate(-90)"><tspan class="cls-23" x="0" y="0">04638043 </tspan><tspan class="cls-8" x="94.84" y="0">A</tspan></text>
  <line class="cls-2" x1="149.61" y1="53.96" x2="264.71" y2="53.96"/>
  <line class="cls-2" x1="149.61" y1="117.82" x2="264.71" y2="117.82"/>
  <text class="cls-13" transform="translate(148.29 70.87)"><tspan class="cls-22"><tspan x="0" y="0">Время: 19:00</tspan></tspan><tspan class="cls-22"><tspan x="0" y="12">Зал: №3</tspan></tspan><tspan class="cls-22" x="0" y="24">Р</tspan><tspan class="cls-9" x="6.19" y="24">я</tspan><tspan class="cls-22" x="11.32" y="24">д: 6-ой</tspan><tspan class="cls-22"><tspan x="0" y="36">Место: 46</tspan></tspan></text>
  <g>
    <rect class="cls-1" x="42.38" y="71.26" width="86.93" height="53.16"/>
    <polygon class="cls-4" points="61.33 71.26 47.65 71.26 42.38 80.38 42.38 85.99 52.83 85.99 61.33 71.26"/>
    <polygon class="cls-1" points="63.75 85.99 77.44 85.99 85.94 71.26 72.25 71.26 63.75 85.99"/>
    <polygon class="cls-1" points="87.46 85.99 101.14 85.99 109.65 71.26 95.96 71.26 87.46 85.99"/>
    <g>
      <polygon class="cls-1" points="42.31 71.26 42.31 85.99 111.45 85.99 119.96 71.26 42.31 71.26"/>
      <polygon class="cls-1" points="125.14 85.99 129.24 85.99 129.24 78.89 125.14 85.99"/>
      <polygon class="cls-1" points="129.24 71.26 119.96 71.26 111.45 85.99 125.14 85.99 129.24 78.89 129.24 71.26"/>
    </g>
    <rect class="cls-1" x="42.59" y="71.26" width="86.72" height="14.73"/>
    <rect class="cls-1" x="42.48" y="89.31" width="86.93" height="47.29"/>
    <g>
      <rect class="cls-1" x="40.24" y="46.65" width="86.93" height="14.73" transform="translate(-15.79 49.09) rotate(-30)"/>
      <g>
        <polygon class="cls-7" points="42.38 69.36 49.74 82.12 109.62 47.55 109.62 30.54 42.38 69.36"/>
        <polygon class="cls-7" points="121.48 40.7 125.02 38.65 121.48 32.51 121.48 40.7"/>
        <polygon class="cls-7" points="117.66 25.9 109.62 30.54 109.62 47.55 121.48 40.7 121.48 32.51 117.66 25.9"/>
      </g>
      <polygon class="cls-1" points="59.08 59.73 47.22 66.57 47.22 77.1 50.03 81.96 59.08 76.74 59.08 59.73"/>
      <polygon class="cls-1" points="68.92 71.05 80.77 64.21 80.77 47.2 68.92 54.04 68.92 71.05"/>
      <polygon class="cls-1" points="89.57 59.12 101.42 52.28 101.42 35.27 89.57 42.12 89.57 59.12"/>
    </g>
    <g>
      <polygon class="cls-1" points="42.38 69.36 49.74 82.12 109.62 47.55 109.62 30.54 42.38 69.36"/>
      <polygon class="cls-1" points="121.48 40.7 125.02 38.65 121.48 32.51 121.48 40.7"/>
      <polygon class="cls-1" points="117.66 25.9 109.62 30.54 109.62 47.55 121.48 40.7 121.48 32.51 117.66 25.9"/>
    </g>
    <line class="cls-5" x1="51.48" y1="99.24" x2="120.21" y2="99.24"/>
    <line class="cls-4" x1="51.48" y1="108.69" x2="120.21" y2="108.69"/>
    <path class="cls-3" d="M57.93,86.66c.04-.44,.06-.89,.06-1.34,0-8.68-7.04-15.72-15.72-15.72v17.06h15.65Z"/>
  </g>
</svg>