<svg width="454" height="710" viewBox="0 0 454 710" fill="none" xmlns="http://www.w3.org/2000/svg">
<path d="M299.14 229.987C300.545 229.087 304.209 226.461 306.02 221.632C306.59 220.137 307.812 216.687 306.59 212.739C304.84 207.047 298.631 202.295 293.97 202.352C293.379 202.352 292.26 202.448 291.995 201.95C291.446 200.876 295.395 198.097 296.005 197.638C303.944 191.716 300.687 166.687 300.3 163.946C298.326 149.573 295.781 131.194 288.27 114.636C284.952 107.315 283.344 99.3042 279.395 92.2708C278.988 91.5425 277.176 88.3421 276.81 83.915C276.627 81.5195 276.301 77.5907 278.805 75.291C278.805 75.291 279.741 74.4286 286.825 72.5888L289.471 56.4139C288.861 52.2552 288.637 48.8247 288.535 46.3717C288.392 42.6729 288.494 39.8366 288.677 34.5855C288.84 30.1585 289.084 25.8464 289.105 25.4248C289.329 21.4577 289.532 18.9472 289.471 15.1143C289.39 11.1281 289.105 9.4799 288.331 7.77425C287.883 6.79686 286.866 4.63127 284.545 3.11727C283.975 2.75314 282.571 1.87157 280.616 1.69909C279.945 1.6416 279.456 1.69909 279.334 1.69909C268.016 2.63816 256.617 1.71826 245.279 1.77575C245.279 1.77575 232.883 1.81408 175.358 1.56494C174.584 1.62244 173.485 1.73742 172.203 2.10155C171.043 2.42734 169.577 2.84897 168.193 3.97968C166.605 5.28287 165.974 6.79687 165.608 7.67844C164.793 9.70988 164.814 11.4539 164.814 12.1246C164.875 16.8008 164.692 21.4769 164.956 26.1339C165.262 31.4042 165.363 34.9688 165.465 38.3226C165.587 42.8071 165.587 45.2793 165.384 48.2306C165.384 48.2306 165.16 52.2935 164.59 55.3024L164.305 56.8547L166.585 72.6846C167.46 72.7038 168.702 72.7804 170.167 73.0296C171.775 73.2979 172.59 73.432 173.383 73.9111C174.727 74.7161 175.399 75.9234 175.887 76.805C175.887 76.805 176.437 77.8207 176.742 78.8939C178.065 83.6659 175.663 90.6226 175.663 90.6226C173.322 97.4069 172.04 99.4958 168.58 108.35C168.193 109.346 167.216 111.876 165.994 115.153C164.203 120.04 162.941 123.758 162.554 124.927C161.252 128.818 160.051 132.44 158.687 137.327C158.117 139.377 156.712 144.609 155.328 151.547C154.371 156.357 153.679 159.807 153.191 164.694C152.539 171.152 152.641 175.809 152.682 177.361C152.865 182.938 153.516 186.311 153.761 187.538C154.636 191.811 155.104 193.996 156.834 196.239C158.666 198.596 162.066 201.375 161.984 201.298C161.984 201.298 158.402 203.464 156.692 204.594C152.845 207.124 150.952 208.504 149.527 210.593C148.936 211.474 147.43 213.755 147.308 216.994C147.288 217.569 147.227 220.367 148.875 223.318C150.219 225.733 156.631 231.386 154.595 229.451C150.931 230.831 145.863 232.747 139.858 235.104C130.779 238.669 121.334 242.368 110.444 247.159C107.391 248.5 96.3784 253.387 81.8241 260.842C68.1452 267.837 52.2882 276.021 33.8054 288.937C33.8054 288.937 19.129 299.191 9.48051 311.973C6.81394 315.5 3.98452 319.984 2.60034 325.983C1.74541 329.758 1.78612 332.728 1.80648 334.53C2.13217 350.82 2.29501 358.965 2.60034 362.357C4.37128 382.231 3.19065 378.129 5.32798 402.986C5.7758 408.122 6.63074 417.819 7.97421 430.142C9.46016 443.73 9.5823 442.618 12.1267 464.025C14.1216 480.813 14.7933 487.597 16.7882 501.76C17.3174 505.497 17.7449 508.314 18.5794 513.948C20.6761 527.977 21.8567 535.183 24.1569 549.786C27.1288 568.644 26.6402 566.191 28.5944 578.418C29.6325 584.877 31.607 597.103 34.2532 612.378C39.1996 640.933 40.8891 647.947 41.9883 655.843C42.1308 656.801 42.9654 661.516 44.6346 670.945C44.6956 671.27 44.8177 671.979 45.062 672.899C45.8559 675.87 47.0365 677.978 47.6472 679.032C50.4766 683.976 55.3619 688.595 56.0133 689.208C60.6137 693.501 65.0512 696.338 67.9009 697.967C69.9976 699.174 76.9795 703.026 87.5848 705.517C95.9916 707.491 102.648 707.664 106.76 707.74C126.138 708.124 140.224 707.932 156.488 707.74C162.88 707.664 170.167 707.645 184.762 707.606C198.665 707.568 208.945 707.606 218.329 707.606C260.485 707.683 281.553 707.721 282.449 707.74C303.679 707.99 316.605 708.411 338.691 707.74C339.098 707.74 352.94 707.204 352.94 707.204C353.835 707.108 355.118 706.955 356.665 706.725C356.665 706.725 360.492 706.226 365.031 705.249C372.97 703.524 381.885 699.136 386.14 697.028C389.682 695.284 392.837 693.77 396.867 691.24C399.147 689.822 402.261 687.848 405.885 684.762C408.795 682.29 412.989 678.745 416.612 673.168C419.848 668.204 422.474 661.841 422.474 661.841C422.474 661.841 423.329 654.885 423.472 653.62C424.449 645.609 425.039 640.185 425.609 635.164C426.953 623.761 427.258 623.263 428.907 610.231C430.047 601.147 430.128 599.537 431.492 587.866C433.059 574.298 433.873 568.663 435.217 557.816C437.151 542.216 438.331 531.139 440.367 511.725C442.036 495.819 443.522 481.867 445.089 464.159C446.514 448.233 448.591 424.527 450.097 394.496C451.644 363.718 452.377 330.352 452.377 330.352C452.377 330.352 451.155 323.836 451.094 323.472C449.323 314.12 435.929 301.778 435.929 301.778C425.711 292.368 416.327 286.274 410.587 282.651C395.096 272.878 381.967 265.844 373.804 261.628C354.812 251.835 338.874 245.031 328.574 240.873C316.992 236.197 306.916 232.594 299.099 229.949L299.14 229.987Z" stroke="#231F20" stroke-width="3" stroke-miterlimit="10"/>
<path d="M405.748 443.328L255.595 301.96C239.799 287.089 214.19 287.089 198.395 301.96L48.2411 443.328C32.4458 458.2 32.4458 482.31 48.2411 497.182L198.395 638.55C214.19 653.421 239.799 653.421 255.595 638.55L405.748 497.182C421.543 482.31 421.543 458.2 405.748 443.328Z" stroke="#231F20" stroke-width="2" stroke-miterlimit="10"/>
<path d="M387.961 443.463L255.469 318.722C239.673 303.851 214.064 303.851 198.269 318.722L65.776 443.463C49.9807 458.334 49.9807 482.445 65.776 497.316L198.269 622.056C214.064 636.927 239.673 636.927 255.469 622.056L387.961 497.316C403.757 482.445 403.757 458.334 387.961 443.463Z" stroke="#231F20" stroke-width="2" stroke-miterlimit="10"/>
<path d="M123.146 464.29C122.798 464.29 122.508 464.193 122.276 464C122.083 463.845 121.986 463.652 121.986 463.42C121.986 462.84 122.411 462.434 123.262 462.202C124.577 461.854 125.505 461.448 126.046 460.984C126.626 460.52 126.916 459.669 126.916 458.432V432.042C126.916 430.805 126.665 429.915 126.162 429.374C125.659 428.794 124.731 428.369 123.378 428.098C122.875 427.982 122.527 427.827 122.334 427.634C122.141 427.402 122.044 427.151 122.044 426.88C122.044 426.648 122.16 426.455 122.392 426.3C122.624 426.107 122.914 426.01 123.262 426.01C124.499 426.01 125.524 426.049 126.336 426.126C127.148 426.203 127.902 426.281 128.598 426.358C129.333 426.397 130.183 426.416 131.15 426.416C132.039 426.416 132.851 426.377 133.586 426.3C134.321 426.184 135.133 426.087 136.022 426.01C136.95 425.933 138.071 425.894 139.386 425.894C143.987 425.894 147.467 426.551 149.826 427.866C152.223 429.142 153.422 431.365 153.422 434.536C153.422 435.735 153.151 436.875 152.61 437.958C152.069 439.002 151.373 439.872 150.522 440.568C149.903 441.109 149.246 441.554 148.55 441.902C147.893 442.25 147.139 442.54 146.288 442.772C146.133 442.811 146.056 442.907 146.056 443.062C146.056 443.217 146.133 443.313 146.288 443.352C147.293 443.584 148.337 443.893 149.42 444.28C150.503 444.628 151.508 445.15 152.436 445.846C153.403 446.542 154.157 447.451 154.698 448.572C155.278 449.655 155.568 451.047 155.568 452.748C155.568 454.913 155.22 456.634 154.524 457.91C153.867 459.147 153.055 460.095 152.088 460.752C151.16 461.409 150.29 461.951 149.478 462.376C148.202 462.995 146.752 463.459 145.128 463.768C143.504 464.077 141.571 464.232 139.328 464.232C138.052 464.232 136.757 464.193 135.442 464.116C134.166 464.039 132.813 464 131.382 464C130.57 464 129.681 464.019 128.714 464.058C127.747 464.097 126.781 464.135 125.814 464.174C124.886 464.251 123.997 464.29 123.146 464.29ZM139.386 461.042C140.546 461.042 141.629 460.694 142.634 459.998C143.678 459.302 144.49 458.374 145.07 457.214C145.689 456.015 145.998 454.662 145.998 453.154C145.998 451.839 145.824 450.737 145.476 449.848C145.167 448.959 144.78 448.243 144.316 447.702C143.891 447.161 143.485 446.755 143.098 446.484C142.789 446.213 142.228 445.943 141.416 445.672C140.643 445.363 139.676 445.208 138.516 445.208C137.859 445.208 137.24 445.382 136.66 445.73C136.119 446.039 135.848 446.503 135.848 447.122V457.33C135.848 458.606 136.157 459.553 136.776 460.172C137.395 460.752 138.265 461.042 139.386 461.042ZM138.168 442.598C139.096 442.598 139.947 442.501 140.72 442.308C141.493 442.076 142.286 441.651 143.098 441.032C143.369 440.761 143.736 440.22 144.2 439.408C144.703 438.557 144.954 437.339 144.954 435.754C144.954 434.13 144.741 432.777 144.316 431.694C143.891 430.611 143.233 429.799 142.344 429.258C141.493 428.717 140.353 428.446 138.922 428.446C137.839 428.446 137.047 428.659 136.544 429.084C136.08 429.471 135.848 430.07 135.848 430.882V440.568C135.848 441.341 136.119 441.883 136.66 442.192C137.201 442.463 137.704 442.598 138.168 442.598ZM159.569 464.174C159.298 464.174 159.027 464.116 158.757 464C158.525 463.845 158.409 463.633 158.409 463.362C158.409 462.743 158.815 462.337 159.627 462.144C161.096 461.835 162.082 461.448 162.585 460.984C163.126 460.481 163.397 459.611 163.397 458.374V432.042C163.397 430.766 163.165 429.877 162.701 429.374C162.237 428.871 161.251 428.446 159.743 428.098C158.892 427.905 158.467 427.499 158.467 426.88C158.467 426.609 158.583 426.397 158.815 426.242C159.085 426.087 159.356 426.01 159.627 426.01C160.516 426.01 161.444 426.029 162.411 426.068C163.416 426.107 164.383 426.165 165.311 426.242C166.239 426.281 167.089 426.3 167.863 426.3C168.636 426.3 169.506 426.281 170.473 426.242C171.478 426.203 172.483 426.165 173.489 426.126C174.533 426.087 175.48 426.068 176.331 426.068C176.679 426.068 176.93 426.145 177.085 426.3C177.278 426.416 177.375 426.609 177.375 426.88C177.375 427.267 177.259 427.537 177.027 427.692C176.833 427.847 176.543 427.982 176.157 428.098C174.571 428.523 173.527 429.007 173.025 429.548C172.561 430.089 172.329 430.94 172.329 432.1V451.762C172.329 452.303 172.387 452.593 172.503 452.632C172.619 452.671 172.851 452.516 173.199 452.168L189.961 433.724C190.347 433.337 190.541 432.912 190.541 432.448V431.868C190.502 430.708 190.212 429.877 189.671 429.374C189.168 428.871 188.182 428.446 186.713 428.098C185.862 427.905 185.437 427.499 185.437 426.88C185.437 426.609 185.553 426.397 185.785 426.242C186.055 426.087 186.326 426.01 186.597 426.01C187.486 426.01 188.414 426.029 189.381 426.068C190.386 426.107 191.372 426.165 192.339 426.242C193.305 426.281 194.175 426.3 194.949 426.3C195.722 426.3 196.573 426.281 197.501 426.242C198.467 426.203 199.453 426.165 200.459 426.126C201.503 426.087 202.45 426.068 203.301 426.068C203.649 426.068 203.9 426.145 204.055 426.3C204.248 426.416 204.345 426.609 204.345 426.88C204.345 427.267 204.229 427.537 203.997 427.692C203.803 427.847 203.513 427.982 203.127 428.098C201.541 428.523 200.536 429.007 200.111 429.548C199.685 430.089 199.473 430.94 199.473 432.1V458.316C199.473 459.437 199.705 460.269 200.169 460.81C200.633 461.313 201.619 461.757 203.127 462.144C203.552 462.26 203.861 462.395 204.055 462.55C204.287 462.705 204.403 462.956 204.403 463.304C204.403 463.575 204.306 463.787 204.113 463.942C203.919 464.097 203.649 464.174 203.301 464.174C202.45 464.174 201.503 464.135 200.459 464.058C199.453 464.019 198.448 463.981 197.443 463.942C196.476 463.903 195.606 463.884 194.833 463.884C194.059 463.884 193.209 463.903 192.281 463.942C191.353 463.981 190.386 464.019 189.381 464.058C188.414 464.135 187.486 464.174 186.597 464.174C186.326 464.174 186.055 464.116 185.785 464C185.553 463.845 185.437 463.633 185.437 463.362C185.437 462.743 185.843 462.337 186.655 462.144C188.085 461.835 189.091 461.448 189.671 460.984C190.251 460.52 190.541 459.689 190.541 458.49V438.48C190.541 437.977 190.367 437.881 190.019 438.19L173.083 456.866C172.812 457.137 172.619 457.388 172.503 457.62C172.387 457.813 172.329 458.084 172.329 458.432C172.329 459.553 172.619 460.365 173.199 460.868C173.779 461.332 174.803 461.757 176.273 462.144C176.659 462.26 176.949 462.395 177.143 462.55C177.375 462.705 177.491 462.956 177.491 463.304C177.491 463.575 177.394 463.787 177.201 463.942C177.046 464.097 176.795 464.174 176.447 464.174C175.596 464.174 174.649 464.135 173.605 464.058C172.561 464.019 171.536 463.981 170.531 463.942C169.525 463.903 168.636 463.884 167.863 463.884C167.089 463.884 166.219 463.903 165.253 463.942C164.325 463.981 163.358 464.019 162.353 464.058C161.386 464.135 160.458 464.174 159.569 464.174ZM228.771 464.812C225.755 464.812 222.933 464.367 220.303 463.478C217.674 462.55 215.354 461.255 213.343 459.592C211.333 457.891 209.767 455.861 208.645 453.502C207.524 451.143 206.963 448.533 206.963 445.672C206.963 443.004 207.485 440.471 208.529 438.074C209.612 435.638 211.178 433.492 213.227 431.636C215.277 429.741 217.732 428.253 220.593 427.17C223.493 426.049 226.761 425.488 230.395 425.488C231.633 425.488 232.87 425.585 234.107 425.778C235.383 425.933 236.601 426.165 237.761 426.474C238.96 426.783 240.043 427.112 241.009 427.46C241.357 427.615 241.647 427.827 241.879 428.098C242.15 428.33 242.305 428.678 242.343 429.142C242.498 430.418 242.614 431.655 242.691 432.854C242.769 434.053 242.807 435.135 242.807 436.102C242.807 436.527 242.653 436.817 242.343 436.972C242.034 437.127 241.686 437.146 241.299 437.03C240.951 436.875 240.7 436.566 240.545 436.102C240.275 435.213 239.946 434.323 239.559 433.434C239.211 432.545 238.67 431.771 237.935 431.114C237.162 430.341 236.079 429.703 234.687 429.2C233.334 428.697 231.691 428.446 229.757 428.446C227.785 428.446 225.987 428.871 224.363 429.722C222.778 430.573 221.405 431.733 220.245 433.202C219.124 434.671 218.254 436.334 217.635 438.19C217.017 440.046 216.707 441.979 216.707 443.99C216.707 446.542 216.978 448.92 217.519 451.124C218.061 453.289 218.892 455.165 220.013 456.75C221.135 458.335 222.507 459.573 224.131 460.462C225.755 461.351 227.669 461.796 229.873 461.796C232.735 461.796 235.055 461.197 236.833 459.998C238.612 458.761 240.101 456.885 241.299 454.372C241.609 453.676 242.034 453.347 242.575 453.386C243.155 453.425 243.445 453.753 243.445 454.372C243.445 454.875 243.387 455.493 243.271 456.228C243.194 456.924 243.059 457.678 242.865 458.49C242.672 459.302 242.44 460.133 242.169 460.984C242.015 461.448 241.802 461.815 241.531 462.086C241.299 462.318 240.99 462.531 240.603 462.724C239.134 463.343 237.394 463.845 235.383 464.232C233.373 464.619 231.169 464.812 228.771 464.812ZM280.506 465.044C278.186 465.044 276.35 464.638 274.996 463.826C273.682 463.014 272.483 461.603 271.4 459.592L265.542 448.572C265.117 447.799 264.711 447.199 264.324 446.774C263.938 446.31 263.512 446.001 263.048 445.846C262.816 445.769 262.604 445.73 262.41 445.73C262.256 445.691 262.082 445.672 261.888 445.672C261.695 445.672 261.56 445.769 261.482 445.962C261.444 446.155 261.424 446.368 261.424 446.6L261.54 458.2C261.579 458.896 261.676 459.495 261.83 459.998C261.985 460.501 262.294 460.907 262.758 461.216C263.222 461.525 263.957 461.835 264.962 462.144C265.388 462.26 265.755 462.395 266.064 462.55C266.374 462.705 266.528 462.956 266.528 463.304C266.528 463.575 266.354 463.807 266.006 464C265.658 464.155 265.272 464.232 264.846 464.232C263.648 464.232 262.604 464.193 261.714 464.116C260.825 464.039 260.013 463.961 259.278 463.884C258.544 463.807 257.809 463.768 257.074 463.768C256.262 463.768 255.489 463.826 254.754 463.942C254.02 464.019 253.208 464.097 252.318 464.174C251.468 464.29 250.385 464.348 249.07 464.348C248.684 464.348 248.316 464.251 247.968 464.058C247.62 463.865 247.446 463.633 247.446 463.362C247.446 462.743 247.949 462.337 248.954 462.144C250.424 461.835 251.39 461.429 251.854 460.926C252.318 460.423 252.55 459.553 252.55 458.316V432.042C252.55 430.766 252.28 429.877 251.738 429.374C251.236 428.871 250.211 428.446 248.664 428.098C247.852 427.905 247.446 427.499 247.446 426.88C247.446 426.609 247.562 426.397 247.794 426.242C248.065 426.087 248.336 426.01 248.606 426.01C249.496 426.01 250.424 426.029 251.39 426.068C252.396 426.107 253.362 426.165 254.29 426.242C255.257 426.281 256.146 426.3 256.958 426.3C257.732 426.3 258.582 426.281 259.51 426.242C260.477 426.203 261.463 426.165 262.468 426.126C263.512 426.087 264.46 426.068 265.31 426.068C265.62 426.068 265.871 426.145 266.064 426.3C266.258 426.416 266.354 426.609 266.354 426.88C266.354 427.267 266.238 427.537 266.006 427.692C265.813 427.847 265.504 427.982 265.078 428.098C263.532 428.523 262.526 429.007 262.062 429.548C261.637 430.089 261.424 430.94 261.424 432.1V442.366C261.424 442.675 261.482 442.907 261.598 443.062C261.714 443.217 261.85 443.294 262.004 443.294H263.338C264.769 443.294 265.987 442.733 266.992 441.612C268.036 440.452 268.887 439.079 269.544 437.494L271.574 432.564C272.116 431.249 272.696 430.07 273.314 429.026C273.933 427.943 274.745 427.093 275.75 426.474C276.756 425.817 278.09 425.488 279.752 425.488C281.376 425.488 282.556 425.894 283.29 426.706C284.025 427.479 284.392 428.407 284.392 429.49C284.392 430.341 284.141 431.191 283.638 432.042C283.174 432.893 282.44 433.318 281.434 433.318C280.7 433.318 279.946 433.125 279.172 432.738C278.438 432.313 277.761 432.1 277.142 432.1C276.446 432.1 275.77 432.313 275.112 432.738C274.494 433.163 273.952 433.937 273.488 435.058L271.806 439.292C271.536 440.104 271.149 440.8 270.646 441.38C270.144 441.96 269.602 442.424 269.022 442.772C268.79 442.927 268.713 443.081 268.79 443.236C268.906 443.391 269.022 443.507 269.138 443.584C270.608 443.816 271.768 444.319 272.618 445.092C273.469 445.827 274.358 447.045 275.286 448.746L280.042 457.272C280.584 458.239 281.125 459.012 281.666 459.592C282.208 460.172 282.768 460.597 283.348 460.868C283.928 461.1 284.508 461.274 285.088 461.39C285.707 461.467 286.345 461.506 287.002 461.506C287.273 461.506 287.486 461.603 287.64 461.796C287.834 461.989 287.93 462.202 287.93 462.434C287.93 462.627 287.853 462.821 287.698 463.014C287.582 463.169 287.447 463.285 287.292 463.362C286.828 463.749 285.958 464.116 284.682 464.464C283.406 464.851 282.014 465.044 280.506 465.044ZM289.502 464.174C289.232 464.174 288.961 464.116 288.69 464C288.458 463.845 288.342 463.633 288.342 463.362C288.342 462.743 288.748 462.337 289.56 462.144C291.03 461.835 292.016 461.448 292.518 460.984C293.06 460.481 293.33 459.611 293.33 458.374V432.042C293.33 430.766 293.098 429.877 292.634 429.374C292.17 428.871 291.184 428.446 289.676 428.098C288.826 427.905 288.4 427.499 288.4 426.88C288.4 426.609 288.516 426.397 288.748 426.242C289.019 426.087 289.29 426.01 289.56 426.01C290.45 426.01 291.378 426.029 292.344 426.068C293.35 426.107 294.316 426.165 295.244 426.242C296.172 426.281 297.023 426.3 297.796 426.3C298.57 426.3 299.44 426.281 300.406 426.242C301.412 426.203 302.417 426.165 303.422 426.126C304.466 426.087 305.414 426.068 306.264 426.068C306.612 426.068 306.864 426.145 307.018 426.3C307.212 426.416 307.308 426.609 307.308 426.88C307.308 427.267 307.192 427.537 306.96 427.692C306.767 427.847 306.477 427.982 306.09 428.098C304.505 428.523 303.461 429.007 302.958 429.548C302.494 430.089 302.262 430.94 302.262 432.1V451.762C302.262 452.303 302.32 452.593 302.436 452.632C302.552 452.671 302.784 452.516 303.132 452.168L319.894 433.724C320.281 433.337 320.474 432.912 320.474 432.448V431.868C320.436 430.708 320.146 429.877 319.604 429.374C319.102 428.871 318.116 428.446 316.646 428.098C315.796 427.905 315.37 427.499 315.37 426.88C315.37 426.609 315.486 426.397 315.718 426.242C315.989 426.087 316.26 426.01 316.53 426.01C317.42 426.01 318.348 426.029 319.314 426.068C320.32 426.107 321.306 426.165 322.272 426.242C323.239 426.281 324.109 426.3 324.882 426.3C325.656 426.3 326.506 426.281 327.434 426.242C328.401 426.203 329.387 426.165 330.392 426.126C331.436 426.087 332.384 426.068 333.234 426.068C333.582 426.068 333.834 426.145 333.988 426.3C334.182 426.416 334.278 426.609 334.278 426.88C334.278 427.267 334.162 427.537 333.93 427.692C333.737 427.847 333.447 427.982 333.06 428.098C331.475 428.523 330.47 429.007 330.044 429.548C329.619 430.089 329.406 430.94 329.406 432.1V458.316C329.406 459.437 329.638 460.269 330.102 460.81C330.566 461.313 331.552 461.757 333.06 462.144C333.486 462.26 333.795 462.395 333.988 462.55C334.22 462.705 334.336 462.956 334.336 463.304C334.336 463.575 334.24 463.787 334.046 463.942C333.853 464.097 333.582 464.174 333.234 464.174C332.384 464.174 331.436 464.135 330.392 464.058C329.387 464.019 328.382 463.981 327.376 463.942C326.41 463.903 325.54 463.884 324.766 463.884C323.993 463.884 323.142 463.903 322.214 463.942C321.286 463.981 320.32 464.019 319.314 464.058C318.348 464.135 317.42 464.174 316.53 464.174C316.26 464.174 315.989 464.116 315.718 464C315.486 463.845 315.37 463.633 315.37 463.362C315.37 462.743 315.776 462.337 316.588 462.144C318.019 461.835 319.024 461.448 319.604 460.984C320.184 460.52 320.474 459.689 320.474 458.49V438.48C320.474 437.977 320.3 437.881 319.952 438.19L303.016 456.866C302.746 457.137 302.552 457.388 302.436 457.62C302.32 457.813 302.262 458.084 302.262 458.432C302.262 459.553 302.552 460.365 303.132 460.868C303.712 461.332 304.737 461.757 306.206 462.144C306.593 462.26 306.883 462.395 307.076 462.55C307.308 462.705 307.424 462.956 307.424 463.304C307.424 463.575 307.328 463.787 307.134 463.942C306.98 464.097 306.728 464.174 306.38 464.174C305.53 464.174 304.582 464.135 303.538 464.058C302.494 464.019 301.47 463.981 300.464 463.942C299.459 463.903 298.57 463.884 297.796 463.884C297.023 463.884 296.153 463.903 295.186 463.942C294.258 463.981 293.292 464.019 292.286 464.058C291.32 464.135 290.392 464.174 289.502 464.174Z" fill="#231F20"/>
<path d="M120.642 470.637H333.622" stroke="#231F20" stroke-width="2" stroke-miterlimit="10"/>
<path d="M157.018 485.47H296.718" stroke="#231F20" stroke-width="2" stroke-miterlimit="10"/>
<path d="M226.857 575.486C247.093 575.486 263.497 560.042 263.497 540.99C263.497 521.938 247.093 506.494 226.857 506.494C206.622 506.494 190.217 521.938 190.217 540.99C190.217 560.042 206.622 575.486 226.857 575.486Z" stroke="#231F20" stroke-width="2" stroke-miterlimit="10"/>
<path d="M226.654 565.042C240.763 565.042 252.2 554.273 252.2 540.99C252.2 527.707 240.763 516.938 226.654 516.938C212.545 516.938 201.108 527.707 201.108 540.99C201.108 554.273 212.545 565.042 226.654 565.042Z" stroke="#231F20" stroke-width="2" stroke-miterlimit="10"/>
<path d="M166.605 72.723L286.825 72.5889" stroke="#231F20" stroke-width="3" stroke-miterlimit="10"/>
</svg>
